<?xml version="1.0" encoding="UTF-8"?>
<svg version="1.1" xmlns="http://www.w3.org/2000/svg" width="558" height="447">
<path d="M0 0 C0.87594193 -0.00205263 1.75188385 -0.00410527 2.65436947 -0.0062201 C5.61611171 -0.01191523 8.57780782 -0.01042977 11.5395546 -0.00901413 C13.67380205 -0.01159633 15.80804902 -0.01460908 17.94229531 -0.01801753 C23.82802061 -0.02610787 29.71373374 -0.02787823 35.59946394 -0.028615 C41.93907596 -0.03046202 48.2786816 -0.03800756 54.61828995 -0.04475021 C69.21370266 -0.05905779 83.80911221 -0.06486191 98.40453062 -0.06944216 C105.6148698 -0.07177703 112.82520818 -0.07537955 120.03554674 -0.07913754 C144.71061705 -0.09197379 169.38568692 -0.10269304 194.0607605 -0.10614014 C195.61011033 -0.10636177 197.15946016 -0.10658355 198.70880999 -0.10680549 C200.26193175 -0.10702613 201.81505351 -0.10724661 203.36817527 -0.10746694 C206.48407857 -0.10790949 209.59998186 -0.10835661 212.71588516 -0.10880661 C213.48844971 -0.108916 214.26101425 -0.10902539 215.05698984 -0.1091381 C240.11196285 -0.11276938 265.16690695 -0.12869173 290.22186888 -0.15199697 C316.70289168 -0.17658371 343.18389794 -0.19031243 369.66493249 -0.19150805 C372.57095735 -0.19167951 375.4769822 -0.19189494 378.38300705 -0.19214249 C379.45634778 -0.19222614 379.45634778 -0.19222614 380.55137216 -0.19231148 C392.0751197 -0.19346293 403.59883761 -0.20449283 415.12257514 -0.21902954 C426.70192888 -0.23338402 438.28123072 -0.23638462 449.86059353 -0.22858956 C456.13579463 -0.22467342 462.41089583 -0.22565961 468.68608475 -0.23964691 C474.42763546 -0.25232801 480.16901061 -0.25123942 485.91056088 -0.2390562 C487.9906644 -0.23708913 490.07078012 -0.24022389 492.15086648 -0.24890056 C494.973412 -0.25993135 497.79533118 -0.25254853 500.61785889 -0.24050903 C501.42966319 -0.24810423 502.24146749 -0.25569942 503.07787192 -0.26352477 C508.96530796 -0.20913217 513.71306073 0.85338697 518.43561172 4.63142776 C520.76227925 7.73365113 520.70573241 10.79597768 520.76196671 14.51990128 C520.78110878 15.66690443 520.80025085 16.81390759 520.81997299 17.99566841 C520.83589745 19.28401148 520.8518219 20.57235455 520.86822891 21.89973831 C520.88840388 23.31188655 520.90876878 24.72403208 520.92930222 26.13617516 C520.9854571 30.16026797 521.03307899 34.18442332 521.07811451 38.20865464 C521.1078601 40.86397661 521.13900802 43.51927993 521.17019272 46.17458534 C521.86312288 106.50403055 521.7834132 166.84282583 521.79804611 227.1754055 C521.79896933 230.90561931 521.79990203 234.63583311 521.8008461 238.36604691 C521.80107063 239.29182859 521.80129516 240.21761028 521.80152649 241.17144595 C521.80552419 256.38342006 521.82319692 271.5953479 521.84620562 286.80730394 C521.8698944 302.59966215 521.88237857 318.39199682 521.88354754 334.18437308 C521.88446017 342.98458477 521.89011773 351.78473413 521.90836716 360.58492851 C521.92372677 368.01243497 521.92890913 375.43985931 521.92062905 382.86737863 C521.91672213 386.64601395 521.91765814 390.42448337 521.9316864 394.2030983 C521.94674269 398.29507647 521.93857121 402.38667966 521.9281044 406.47867203 C521.93616081 407.66943322 521.94421721 408.86019442 521.95251775 410.08703929 C521.91122307 416.96581524 521.6064996 422.45097991 517.06061172 427.94392776 C513.06783355 431.10487715 510.75507681 431.41815703 505.72357464 431.54094124 C505.0278905 431.55999876 504.33220636 431.57905628 503.61544088 431.5986913 C501.28645031 431.65896104 498.95744954 431.70417532 496.62810135 431.74834061 C494.96106778 431.78609667 493.29403974 431.82409774 491.62701696 431.86232746 C472.59998361 432.272145 453.57028571 432.27445656 434.53976905 432.26215243 C429.23152986 432.25984426 423.92329364 432.26340427 418.61505508 432.26613235 C408.27144473 432.2705324 397.92784171 432.26963957 387.58423109 432.26671971 C379.16200431 432.2644426 370.73977956 432.26416305 362.31755257 432.26524353 C361.10960286 432.26539676 359.90165315 432.26555 358.6570989 432.26570787 C356.20161645 432.26602766 353.746134 432.26635188 351.29065155 432.26668046 C328.37319557 432.2695184 305.45574361 432.26627492 282.53828829 432.2608801 C262.96231271 432.25641418 243.38634306 432.25718954 223.81036758 432.26179886 C200.96514585 432.26717558 178.11992763 432.26924327 155.27470535 432.26618659 C152.82896578 432.26586811 150.38322622 432.26555374 147.93748665 432.26524353 C146.73477563 432.26508925 145.5320646 432.26493498 144.29290779 432.26477603 C135.90155138 432.26392009 127.51019723 432.26535365 119.11884117 432.26772308 C108.8628239 432.27055594 98.60681426 432.26971055 88.35079784 432.26444234 C83.13886801 432.26185154 77.92695081 432.26071955 72.71502113 432.26409149 C53.70696675 432.27511484 34.69757257 432.24138966 15.69269555 431.85925399 C14.03467995 431.82740279 12.37656858 431.80014826 10.71839667 431.77787377 C8.4466502 431.74565829 6.17608229 431.69477222 3.90481853 431.63859749 C2.62562776 431.61323697 1.34643699 431.58787645 0.02848285 431.56174743 C-3.74901899 431.09300645 -6.20118946 430.10384462 -9.43938828 428.13142776 C-13.43302982 422.89838022 -13.56437644 417.64392104 -13.56522942 411.24194145 C-13.56740958 410.21581149 -13.56740958 410.21581149 -13.56963378 409.16895163 C-13.57328923 406.87188561 -13.56980944 404.57488614 -13.56637192 402.27782059 C-13.56752392 400.61619926 -13.56911197 398.9545782 -13.57109916 397.29295766 C-13.57528172 392.72292757 -13.5732066 388.1529183 -13.57011294 383.58288813 C-13.56785468 378.65573261 -13.57134062 373.72858073 -13.57409286 368.80142593 C-13.57854516 359.146967 -13.57757643 349.49251582 -13.57468022 339.83805658 C-13.57242382 331.99212455 -13.5721147 324.14619471 -13.57320404 316.30026245 C-13.57335727 315.18449038 -13.57351051 314.06871831 -13.57366838 312.91913497 C-13.5739881 310.65259175 -13.57431232 308.38604854 -13.57464097 306.11950533 C-13.57749425 284.85317974 -13.57421126 263.58685845 -13.56884061 242.32053356 C-13.56437393 224.06869405 -13.56514767 205.81686091 -13.56975937 187.56502151 C-13.57510993 166.37900544 -13.57721828 145.19299314 -13.57414711 124.00697649 C-13.57382855 121.74805919 -13.57351418 119.4891419 -13.57320404 117.23022461 C-13.57304977 116.1187481 -13.57289549 115.00727158 -13.57273654 113.86211396 C-13.57187274 106.02563131 -13.57333135 98.18915105 -13.57568359 90.35266876 C-13.57848718 80.80242464 -13.57773155 71.25218874 -13.57240285 61.70194556 C-13.56977322 56.82824772 -13.56874831 51.9545636 -13.572052 47.08086586 C-13.57503017 42.61993665 -13.57339669 38.15903386 -13.56807445 33.69810705 C-13.56695676 32.08374183 -13.56752711 30.46937437 -13.56995024 28.85501058 C-13.57299116 26.66084077 -13.56987151 24.46676146 -13.56522942 22.27259636 C-13.56506706 21.05374642 -13.56490471 19.83489648 -13.56473744 18.5791117 C-13.43587936 15.03491639 -13.003325 11.63063194 -12.43938828 8.13142776 C-13.09938828 7.80142776 -13.75938828 7.47142776 -14.43938828 7.13142776 C-14.43938828 6.47142776 -14.43938828 5.81142776 -14.43938828 5.13142776 C-13.44938828 5.13142776 -12.45938828 5.13142776 -11.43938828 5.13142776 C-11.43938828 3.81142776 -11.43938828 2.49142776 -11.43938828 1.13142776 C-7.60363252 -0.14715749 -3.99672242 -0.00861222 0 0 Z " fill="#DCDCDC" transform="translate(28.439388275146484,4.868572235107422)"/>
<path d="M0 0 C1.60712467 -0.01564648 1.60712467 -0.01564648 3.2467165 -0.03160906 C5.011092 -0.01822473 5.011092 -0.01822473 6.81111145 -0.00457001 C8.06127391 -0.01080997 9.31143637 -0.01704993 10.59948254 -0.02347898 C14.0717499 -0.04020539 17.54357856 -0.0319113 21.01584768 -0.01953411 C24.75961399 -0.01049932 28.50330384 -0.0244455 32.24705505 -0.0354538 C39.5819117 -0.05326049 46.91660483 -0.04938952 54.25146794 -0.03780323 C60.21149747 -0.02877761 66.1714811 -0.02754113 72.1315155 -0.0318985 C73.40286104 -0.0328179 73.40286104 -0.0328179 74.69989032 -0.03375587 C76.42158327 -0.03503474 78.14327621 -0.03633159 79.86496913 -0.03764623 C96.01750926 -0.04905833 112.16995865 -0.03592848 128.3224839 -0.01444477 C142.18861158 0.00342679 156.05460533 0.00032286 169.92073059 -0.01811981 C186.01461271 -0.03951543 202.10841526 -0.04795963 218.20230961 -0.03567076 C219.91774558 -0.03439653 221.63318156 -0.03313905 223.34861755 -0.0318985 C224.1926925 -0.0312814 225.03676744 -0.03066429 225.90642041 -0.03002849 C231.86078465 -0.02657166 237.81509852 -0.0324111 243.76945496 -0.04181671 C251.0237243 -0.05302356 258.27782047 -0.05002446 265.53206992 -0.02869374 C269.23487745 -0.01816546 272.93739603 -0.01409139 276.64020157 -0.02729034 C280.65006093 -0.04136787 284.65918775 -0.02458438 288.66902161 -0.00457001 C289.84527194 -0.01349289 291.02152227 -0.02241578 292.23341656 -0.03160906 C293.304833 -0.02117807 294.37624945 -0.01074708 295.48013306 0 C296.40600125 0.00064941 297.33186945 0.00129882 298.28579426 0.00196791 C301.50970889 0.66059899 302.71208923 1.96533811 304.74006653 4.50336456 C305.2462244 7.10555172 305.2462244 7.10555172 305.25473022 10.11382294 C305.26745468 11.25642075 305.28017914 12.39901855 305.29328918 13.57624054 C305.28676331 14.82570465 305.28023743 16.07516876 305.27351379 17.36249542 C305.28212936 18.68153366 305.29074493 20.0005719 305.29962158 21.35958099 C305.32212673 24.97539838 305.31917336 28.59077829 305.31030011 32.20663905 C305.30519022 35.22607252 305.31248282 38.24542377 305.31977218 41.26484877 C305.33677497 48.38861656 305.33320193 55.51217018 305.31648254 62.63593292 C305.29956163 69.98313013 305.31539393 77.32973321 305.34770542 84.67686552 C305.37440414 90.98699556 305.3816766 97.29694068 305.37319034 103.60712153 C305.36826172 107.37499174 305.3704726 111.14250449 305.39097786 114.91032982 C305.4093398 118.45398768 305.40337162 121.99679136 305.37877846 125.54040337 C305.37138677 127.4585971 305.38862246 129.3768363 305.40660095 131.29496002 C305.39394699 132.44037766 305.38129303 133.58579529 305.36825562 134.76592255 C305.36766931 135.75902907 305.367083 136.7521356 305.36647892 137.77533627 C304.42779414 141.86331199 303.23107702 143.13893741 299.74006653 145.50336456 C295.6913752 146.24465745 291.69300747 146.17744643 287.58673096 146.13828278 C286.33979763 146.14608273 285.0928643 146.15388268 283.80814511 146.161919 C280.34945536 146.1828 276.89145503 146.17247225 273.43276274 146.15698791 C269.70194863 146.14568327 265.97125375 146.16313256 262.24046326 146.17688751 C254.93311948 146.19913342 247.62603231 146.19431299 240.31867843 146.17982431 C234.38107161 146.16853821 228.44353678 146.16699842 222.50592232 146.17244339 C221.66126948 146.17320956 220.81661664 146.17397572 219.94636827 146.1747651 C218.23055384 146.1763637 216.51473943 146.17798477 214.79892505 146.17962806 C198.7059721 146.19388929 182.61316151 146.17748654 166.52023191 146.15062623 C152.70582491 146.12828303 138.89162795 146.13217045 125.07722473 146.15522003 C109.04082135 146.18196447 93.00454273 146.19252024 76.96812016 146.17715871 C75.25887845 146.17556594 73.54963672 146.17399409 71.84039497 146.17244339 C70.99937913 146.17167201 70.15836328 146.17090063 69.29186211 146.17010588 C63.35951663 146.1657851 57.42725016 146.17308346 51.49491692 146.18484116 C44.26808358 146.19884949 37.04152186 146.1951014 29.81471973 146.16843744 C26.12602698 146.15527712 22.43778743 146.15018394 18.74909782 146.1666832 C14.75461387 146.18428036 10.76087553 146.16330064 6.76641846 146.13828278 C5.59474119 146.14943638 4.42306393 146.16058999 3.21588129 146.17208159 C-4.54423881 146.07728105 -4.54423881 146.07728105 -7.97983456 143.3222723 C-9.39021938 140.21646178 -9.76269967 138.16936872 -9.76786804 134.76592255 C-9.78478699 133.0477961 -9.78478699 133.0477961 -9.80204773 131.29496002 C-9.79395081 130.04752014 -9.78585388 128.80008026 -9.7775116 127.51483917 C-9.7829349 126.18069953 -9.79005874 124.84656588 -9.79875183 123.51244354 C-9.81696205 119.89673405 -9.809928 116.2814819 -9.79723549 112.66576457 C-9.78709784 108.87997516 -9.79650309 105.09422451 -9.80278015 101.30843353 C-9.81005347 94.9523593 -9.80047633 88.59647109 -9.78141785 82.24042511 C-9.75964018 74.89268727 -9.76670795 67.54539324 -9.78872347 60.19766611 C-9.80687542 53.88668835 -9.80943713 47.57584419 -9.79896879 41.26484877 C-9.79273387 37.49652649 -9.79189818 33.72841285 -9.80511475 29.96010399 C-9.81881535 25.76063365 -9.79982709 21.56192869 -9.7775116 17.36249542 C-9.78560852 16.11303131 -9.79370544 14.8635672 -9.80204773 13.57624054 C-9.79076843 12.43364273 -9.77948914 11.29104492 -9.76786804 10.11382294 C-9.76635994 9.12109344 -9.76485184 8.12836393 -9.76329803 7.10555172 C-8.70867182 1.65356921 -5.21161765 0.00365546 0 0 Z " fill="#C4CDD0" transform="translate(47.25993347167969,193.49663543701172)"/>
<path d="M0 0 C1.07290879 -0.00843994 2.14581758 -0.01687988 3.25123876 -0.02557558 C4.43429289 -0.01956553 5.61734701 -0.01355549 6.83625126 -0.00736332 C8.08964284 -0.01274886 9.34303443 -0.01813439 10.63440758 -0.02368313 C14.12026429 -0.03818948 17.60588562 -0.033877 21.09175551 -0.02651632 C24.84848344 -0.02179968 28.60515934 -0.03428112 32.36187077 -0.04453373 C39.72424118 -0.06175679 47.08652638 -0.06255449 54.44891172 -0.05732083 C60.43136687 -0.05328437 66.41379678 -0.05471643 72.39625072 -0.06006908 C73.67196253 -0.06119172 73.67196253 -0.06119172 74.9734463 -0.06233703 C76.70101778 -0.06386846 78.42858925 -0.06540681 80.15616072 -0.066952 C96.36828928 -0.08068975 112.58036963 -0.07523043 128.79249711 -0.06376678 C143.63356356 -0.05383324 158.47450536 -0.0667749 173.31555258 -0.09070098 C188.54372698 -0.11506674 203.77184327 -0.12470606 219.00003678 -0.11804825 C227.55376946 -0.11455038 236.10740624 -0.11682538 244.66112423 -0.13429928 C251.94285739 -0.14898979 259.22442713 -0.14969818 266.50615697 -0.13222837 C270.22313984 -0.12368978 273.9398304 -0.12163787 277.65679836 -0.13687992 C281.68202451 -0.15318202 285.70653934 -0.13864012 289.73175907 -0.12088871 C290.91258247 -0.13049372 292.09340587 -0.14009872 293.3100118 -0.14999479 C294.38552834 -0.1401805 295.46104488 -0.13036621 296.56915283 -0.12025452 C297.49860086 -0.12014718 298.4280489 -0.12003984 299.38566202 -0.11992925 C302.61596387 0.53646955 303.81718425 1.83671087 305.84749699 4.38031673 C306.34806824 6.9852972 306.34806824 6.9852972 306.34870243 9.99750423 C306.35853657 11.1415472 306.3683707 12.28559017 306.37850285 13.46430111 C306.36883488 14.71533627 306.35916691 15.96637142 306.34920597 17.25531673 C306.35298998 18.58930691 306.3584907 19.92329315 306.36557865 21.25726986 C306.37954029 24.87718794 306.36835897 28.49663109 306.35186744 32.11652279 C306.33801639 35.90497873 306.34447707 39.69340711 306.34800053 43.48187923 C306.35070262 49.84393625 306.33722728 56.20580461 306.31404972 62.56781673 C306.28743987 69.92286129 306.28569282 77.27759039 306.29743809 84.63266659 C306.30821793 91.70842175 306.30202721 98.78406282 306.2878828 105.85980892 C306.28212476 108.87090407 306.28220423 111.88191568 306.2869482 114.89301205 C306.29172117 118.43896611 306.28160351 121.98457484 306.25999355 125.53046322 C306.25177596 127.45240281 306.25827527 129.37438764 306.26519108 131.29633236 C306.25528645 132.44037533 306.24538181 133.5844183 306.23517704 134.76312923 C306.2315322 136.25417171 306.2315322 136.25417171 306.22781372 137.77533627 C305.77168899 140.89956379 305.02842561 142.11547167 302.84749699 144.38031673 C300.50344849 144.88171339 300.50344849 144.88171339 297.67658329 144.8836813 C296.5995744 144.89411229 295.52256552 144.90454328 294.41292 144.91529036 C293.22529281 144.90636747 292.03766562 144.89744458 290.81404972 144.8882513 C289.55586902 144.89449127 288.29768831 144.90073123 287.00138092 144.90716028 C283.50212187 144.92390871 280.00329735 144.91558267 276.50403643 144.90321541 C272.73300496 144.89418957 268.96204982 144.90812232 265.19103336 144.91913509 C257.80089598 144.93695141 250.41092081 144.93306655 243.02077699 144.92148453 C237.01637865 144.91246268 231.01202588 144.91122078 225.00762272 144.9155798 C223.72731478 144.91649919 223.72731478 144.91649919 222.42114204 144.91743717 C220.68736782 144.91871603 218.95359362 144.92001288 217.21981943 144.92132753 C200.94999861 144.93274244 184.68026784 144.91960537 168.41046178 144.89812607 C154.44053518 144.88025425 140.47074151 144.8833581 126.5008173 144.90180111 C110.2904898 144.92319177 94.08024129 144.93164372 77.86990166 144.91935205 C76.14239154 144.91807781 74.4148814 144.91682033 72.68737125 144.9155798 C71.83733239 144.91496269 70.98729353 144.91434559 70.11149591 144.91370979 C64.11208991 144.91025146 58.11273387 144.9160956 52.11333561 144.92549801 C44.80521512 144.93669936 37.49726654 144.9337174 30.18916583 144.91237503 C26.45813611 144.90183931 22.72739335 144.89778526 18.99636555 144.91097164 C14.95764032 144.92502996 10.91964397 144.90828129 6.88094425 144.8882513 C5.69331706 144.89717419 4.50568987 144.90609708 3.28207397 144.91529036 C2.20506509 144.90485937 1.1280562 144.89442838 0.01841068 144.8836813 C-1.38088759 144.88270718 -1.38088759 144.88270718 -2.80845451 144.88171339 C-5.15250301 144.38031673 -5.15250301 144.38031673 -6.95208991 142.5128184 C-8.49821941 139.76616084 -8.52990467 137.86487504 -8.53345394 134.71843624 C-8.54191341 133.56453396 -8.55037289 132.41063168 -8.55908871 131.22176266 C-8.54997967 129.32882725 -8.54997967 129.32882725 -8.54068661 127.39765072 C-8.54475268 126.0521874 -8.55009477 124.70672742 -8.55661678 123.36127377 C-8.57029081 119.71051587 -8.56499186 116.06001236 -8.55547953 112.40925002 C-8.5478849 108.58962648 -8.55492784 104.77002474 -8.55963802 100.95040035 C-8.5650955 94.53710677 -8.55790353 88.12391684 -8.54361629 81.710639 C-8.52728278 74.29310064 -8.5325833 66.87580956 -8.54909551 59.45827717 C-8.56270236 53.0913018 -8.5646342 46.72440094 -8.5567795 40.35741574 C-8.55209945 36.55393167 -8.55148733 32.75056391 -8.56138897 28.94708729 C-8.57004503 25.37242819 -8.56406205 21.79808854 -8.5467062 18.22346401 C-8.54083738 16.28342791 -8.54976803 14.34336484 -8.55908871 12.40334225 C-8.55062923 11.25225979 -8.54216976 10.10117733 -8.53345394 8.91521358 C-8.53232286 7.91288913 -8.53119179 6.91056467 -8.53002644 5.87786674 C-7.75116312 0.7252061 -4.78812516 0.00530257 0 0 Z " fill="#C4CED0" transform="translate(46.15250301361084,31.619683265686035)"/>
<path d="M0 0 C1.07290879 -0.00843994 2.14581758 -0.01687988 3.25123876 -0.02557558 C4.43429289 -0.01956553 5.61734701 -0.01355549 6.83625126 -0.00736332 C8.08964284 -0.01274886 9.34303443 -0.01813439 10.63440758 -0.02368313 C14.12026429 -0.03818948 17.60588562 -0.033877 21.09175551 -0.02651632 C24.84848344 -0.02179968 28.60515934 -0.03428112 32.36187077 -0.04453373 C39.72424118 -0.06175679 47.08652638 -0.06255449 54.44891172 -0.05732083 C60.43136687 -0.05328437 66.41379678 -0.05471643 72.39625072 -0.06006908 C73.67196253 -0.06119172 73.67196253 -0.06119172 74.9734463 -0.06233703 C76.70101778 -0.06386846 78.42858925 -0.06540681 80.15616072 -0.066952 C96.36828928 -0.08068975 112.58036963 -0.07523043 128.79249711 -0.06376678 C143.63356356 -0.05383324 158.47450536 -0.0667749 173.31555258 -0.09070098 C188.54372698 -0.11506674 203.77184327 -0.12470606 219.00003678 -0.11804825 C227.55376946 -0.11455038 236.10740624 -0.11682538 244.66112423 -0.13429928 C251.94285739 -0.14898979 259.22442713 -0.14969818 266.50615697 -0.13222837 C270.22313984 -0.12368978 273.9398304 -0.12163787 277.65679836 -0.13687992 C281.68202451 -0.15318202 285.70653934 -0.13864012 289.73175907 -0.12088871 C290.91258247 -0.13049372 292.09340587 -0.14009872 293.3100118 -0.14999479 C294.38552834 -0.1401805 295.46104488 -0.13036621 296.56915283 -0.12025452 C297.49860086 -0.12014718 298.4280489 -0.12003984 299.38566202 -0.11992925 C302.61596387 0.53646955 303.81718425 1.83671087 305.84749699 4.38031673 C306.34806824 6.9852972 306.34806824 6.9852972 306.34870243 9.99750423 C306.35853657 11.1415472 306.3683707 12.28559017 306.37850285 13.46430111 C306.36883488 14.71533627 306.35916691 15.96637142 306.34920597 17.25531673 C306.35298998 18.58930691 306.3584907 19.92329315 306.36557865 21.25726986 C306.37954029 24.87718794 306.36835897 28.49663109 306.35186744 32.11652279 C306.33801639 35.90497873 306.34447707 39.69340711 306.34800053 43.48187923 C306.35070262 49.84393625 306.33722728 56.20580461 306.31404972 62.56781673 C306.28743987 69.92286129 306.28569282 77.27759039 306.29743809 84.63266659 C306.30821793 91.70842175 306.30202721 98.78406282 306.2878828 105.85980892 C306.28212476 108.87090407 306.28220423 111.88191568 306.2869482 114.89301205 C306.29172117 118.43896611 306.28160351 121.98457484 306.25999355 125.53046322 C306.25177596 127.45240281 306.25827527 129.37438764 306.26519108 131.29633236 C306.25528645 132.44037533 306.24538181 133.5844183 306.23517704 134.76312923 C306.2315322 136.25417171 306.2315322 136.25417171 306.22781372 137.77533627 C305.77168899 140.89956379 305.02842561 142.11547167 302.84749699 144.38031673 C300.50344849 144.88171339 300.50344849 144.88171339 297.67658329 144.8836813 C296.5995744 144.89411229 295.52256552 144.90454328 294.41292 144.91529036 C293.22529281 144.90636747 292.03766562 144.89744458 290.81404972 144.8882513 C289.55586902 144.89449127 288.29768831 144.90073123 287.00138092 144.90716028 C283.50212187 144.92390871 280.00329735 144.91558267 276.50403643 144.90321541 C272.73300496 144.89418957 268.96204982 144.90812232 265.19103336 144.91913509 C257.80089598 144.93695141 250.41092081 144.93306655 243.02077699 144.92148453 C237.01637865 144.91246268 231.01202588 144.91122078 225.00762272 144.9155798 C223.72731478 144.91649919 223.72731478 144.91649919 222.42114204 144.91743717 C220.68736782 144.91871603 218.95359362 144.92001288 217.21981943 144.92132753 C200.94999861 144.93274244 184.68026784 144.91960537 168.41046178 144.89812607 C154.44053518 144.88025425 140.47074151 144.8833581 126.5008173 144.90180111 C110.2904898 144.92319177 94.08024129 144.93164372 77.86990166 144.91935205 C76.14239154 144.91807781 74.4148814 144.91682033 72.68737125 144.9155798 C71.83733239 144.91496269 70.98729353 144.91434559 70.11149591 144.91370979 C64.11208991 144.91025146 58.11273387 144.9160956 52.11333561 144.92549801 C44.80521512 144.93669936 37.49726654 144.9337174 30.18916583 144.91237503 C26.45813611 144.90183931 22.72739335 144.89778526 18.99636555 144.91097164 C14.95764032 144.92502996 10.91964397 144.90828129 6.88094425 144.8882513 C5.69331706 144.89717419 4.50568987 144.90609708 3.28207397 144.91529036 C2.20506509 144.90485937 1.1280562 144.89442838 0.01841068 144.8836813 C-1.38088759 144.88270718 -1.38088759 144.88270718 -2.80845451 144.88171339 C-5.15250301 144.38031673 -5.15250301 144.38031673 -6.95208991 142.5128184 C-8.49821941 139.76616084 -8.52990467 137.86487504 -8.53345394 134.71843624 C-8.54191341 133.56453396 -8.55037289 132.41063168 -8.55908871 131.22176266 C-8.54997967 129.32882725 -8.54997967 129.32882725 -8.54068661 127.39765072 C-8.54475268 126.0521874 -8.55009477 124.70672742 -8.55661678 123.36127377 C-8.57029081 119.71051587 -8.56499186 116.06001236 -8.55547953 112.40925002 C-8.5478849 108.58962648 -8.55492784 104.77002474 -8.55963802 100.95040035 C-8.5650955 94.53710677 -8.55790353 88.12391684 -8.54361629 81.710639 C-8.52728278 74.29310064 -8.5325833 66.87580956 -8.54909551 59.45827717 C-8.56270236 53.0913018 -8.5646342 46.72440094 -8.5567795 40.35741574 C-8.55209945 36.55393167 -8.55148733 32.75056391 -8.56138897 28.94708729 C-8.57004503 25.37242819 -8.56406205 21.79808854 -8.5467062 18.22346401 C-8.54083738 16.28342791 -8.54976803 14.34336484 -8.55908871 12.40334225 C-8.55062923 11.25225979 -8.54216976 10.10117733 -8.53345394 8.91521358 C-8.53232286 7.91288913 -8.53119179 6.91056467 -8.53002644 5.87786674 C-7.75116312 0.7252061 -4.78812516 0.00530257 0 0 Z M3.84749699 12.38031673 C3.84749699 51.98031673 3.84749699 91.58031673 3.84749699 132.38031673 C99.21749699 132.38031673 194.58749699 132.38031673 292.84749699 132.38031673 C292.84749699 92.78031673 292.84749699 53.18031673 292.84749699 12.38031673 C197.47749699 12.38031673 102.10749699 12.38031673 3.84749699 12.38031673 Z " fill="#515555" transform="translate(46.15250301361084,31.619683265686035)"/>
<path d="M0 0 C1.60712467 -0.01564648 1.60712467 -0.01564648 3.2467165 -0.03160906 C5.011092 -0.01822473 5.011092 -0.01822473 6.81111145 -0.00457001 C8.06127391 -0.01080997 9.31143637 -0.01704993 10.59948254 -0.02347898 C14.0717499 -0.04020539 17.54357856 -0.0319113 21.01584768 -0.01953411 C24.75961399 -0.01049932 28.50330384 -0.0244455 32.24705505 -0.0354538 C39.5819117 -0.05326049 46.91660483 -0.04938952 54.25146794 -0.03780323 C60.21149747 -0.02877761 66.1714811 -0.02754113 72.1315155 -0.0318985 C73.40286104 -0.0328179 73.40286104 -0.0328179 74.69989032 -0.03375587 C76.42158327 -0.03503474 78.14327621 -0.03633159 79.86496913 -0.03764623 C96.01750926 -0.04905833 112.16995865 -0.03592848 128.3224839 -0.01444477 C142.18861158 0.00342679 156.05460533 0.00032286 169.92073059 -0.01811981 C186.01461271 -0.03951543 202.10841526 -0.04795963 218.20230961 -0.03567076 C219.91774558 -0.03439653 221.63318156 -0.03313905 223.34861755 -0.0318985 C224.1926925 -0.0312814 225.03676744 -0.03066429 225.90642041 -0.03002849 C231.86078465 -0.02657166 237.81509852 -0.0324111 243.76945496 -0.04181671 C251.0237243 -0.05302356 258.27782047 -0.05002446 265.53206992 -0.02869374 C269.23487745 -0.01816546 272.93739603 -0.01409139 276.64020157 -0.02729034 C280.65006093 -0.04136787 284.65918775 -0.02458438 288.66902161 -0.00457001 C289.84527194 -0.01349289 291.02152227 -0.02241578 292.23341656 -0.03160906 C293.304833 -0.02117807 294.37624945 -0.01074708 295.48013306 0 C296.40600125 0.00064941 297.33186945 0.00129882 298.28579426 0.00196791 C301.50970889 0.66059899 302.71208923 1.96533811 304.74006653 4.50336456 C305.2462244 7.10555172 305.2462244 7.10555172 305.25473022 10.11382294 C305.26745468 11.25642075 305.28017914 12.39901855 305.29328918 13.57624054 C305.28676331 14.82570465 305.28023743 16.07516876 305.27351379 17.36249542 C305.28212936 18.68153366 305.29074493 20.0005719 305.29962158 21.35958099 C305.32212673 24.97539838 305.31917336 28.59077829 305.31030011 32.20663905 C305.30519022 35.22607252 305.31248282 38.24542377 305.31977218 41.26484877 C305.33677497 48.38861656 305.33320193 55.51217018 305.31648254 62.63593292 C305.29956163 69.98313013 305.31539393 77.32973321 305.34770542 84.67686552 C305.37440414 90.98699556 305.3816766 97.29694068 305.37319034 103.60712153 C305.36826172 107.37499174 305.3704726 111.14250449 305.39097786 114.91032982 C305.4093398 118.45398768 305.40337162 121.99679136 305.37877846 125.54040337 C305.37138677 127.4585971 305.38862246 129.3768363 305.40660095 131.29496002 C305.39394699 132.44037766 305.38129303 133.58579529 305.36825562 134.76592255 C305.36766931 135.75902907 305.367083 136.7521356 305.36647892 137.77533627 C304.42779414 141.86331199 303.23107702 143.13893741 299.74006653 145.50336456 C295.6913752 146.24465745 291.69300747 146.17744643 287.58673096 146.13828278 C286.33979763 146.14608273 285.0928643 146.15388268 283.80814511 146.161919 C280.34945536 146.1828 276.89145503 146.17247225 273.43276274 146.15698791 C269.70194863 146.14568327 265.97125375 146.16313256 262.24046326 146.17688751 C254.93311948 146.19913342 247.62603231 146.19431299 240.31867843 146.17982431 C234.38107161 146.16853821 228.44353678 146.16699842 222.50592232 146.17244339 C221.66126948 146.17320956 220.81661664 146.17397572 219.94636827 146.1747651 C218.23055384 146.1763637 216.51473943 146.17798477 214.79892505 146.17962806 C198.7059721 146.19388929 182.61316151 146.17748654 166.52023191 146.15062623 C152.70582491 146.12828303 138.89162795 146.13217045 125.07722473 146.15522003 C109.04082135 146.18196447 93.00454273 146.19252024 76.96812016 146.17715871 C75.25887845 146.17556594 73.54963672 146.17399409 71.84039497 146.17244339 C70.99937913 146.17167201 70.15836328 146.17090063 69.29186211 146.17010588 C63.35951663 146.1657851 57.42725016 146.17308346 51.49491692 146.18484116 C44.26808358 146.19884949 37.04152186 146.1951014 29.81471973 146.16843744 C26.12602698 146.15527712 22.43778743 146.15018394 18.74909782 146.1666832 C14.75461387 146.18428036 10.76087553 146.16330064 6.76641846 146.13828278 C5.59474119 146.14943638 4.42306393 146.16058999 3.21588129 146.17208159 C-4.54423881 146.07728105 -4.54423881 146.07728105 -7.97983456 143.3222723 C-9.39021938 140.21646178 -9.76269967 138.16936872 -9.76786804 134.76592255 C-9.78478699 133.0477961 -9.78478699 133.0477961 -9.80204773 131.29496002 C-9.79395081 130.04752014 -9.78585388 128.80008026 -9.7775116 127.51483917 C-9.7829349 126.18069953 -9.79005874 124.84656588 -9.79875183 123.51244354 C-9.81696205 119.89673405 -9.809928 116.2814819 -9.79723549 112.66576457 C-9.78709784 108.87997516 -9.79650309 105.09422451 -9.80278015 101.30843353 C-9.81005347 94.9523593 -9.80047633 88.59647109 -9.78141785 82.24042511 C-9.75964018 74.89268727 -9.76670795 67.54539324 -9.78872347 60.19766611 C-9.80687542 53.88668835 -9.80943713 47.57584419 -9.79896879 41.26484877 C-9.79273387 37.49652649 -9.79189818 33.72841285 -9.80511475 29.96010399 C-9.81881535 25.76063365 -9.79982709 21.56192869 -9.7775116 17.36249542 C-9.78560852 16.11303131 -9.79370544 14.8635672 -9.80204773 13.57624054 C-9.79076843 12.43364273 -9.77948914 11.29104492 -9.76786804 10.11382294 C-9.76635994 9.12109344 -9.76485184 8.12836393 -9.76329803 7.10555172 C-8.70867182 1.65356921 -5.21161765 0.00365546 0 0 Z M2.74006653 12.50336456 C2.74006653 52.43336456 2.74006653 92.36336456 2.74006653 133.50336456 C98.44006653 133.50336456 194.14006653 133.50336456 292.74006653 133.50336456 C292.74006653 93.57336456 292.74006653 53.64336456 292.74006653 12.50336456 C197.04006653 12.50336456 101.34006653 12.50336456 2.74006653 12.50336456 Z " fill="#515554" transform="translate(47.25993347167969,193.49663543701172)"/>
<path d="M0 0 C5.4223066 3.378145 9.8141339 7.97458797 12.25 13.9375 C13.05690665 19.97991726 12.80347891 25.67111543 9.72265625 31.015625 C6.10344724 35.73883676 1.3803092 41.06340648 -4.75 41.9375 C-12.75306828 42.5661398 -17.70879284 41.72785732 -24.375 37.125 C-29.03193202 32.83572051 -31.34915667 28.62525865 -32.0234375 22.421875 C-32.27987855 15.51769279 -31.33106099 11.18447963 -26.75 5.9375 C-19.24728918 -1.7361154 -10.1540637 -5.21424892 0 0 Z " fill="#4E5150" transform="translate(316.75,376.0625)"/>
<path d="M0 0 C1.299375 0.5878125 1.299375 0.5878125 2.625 1.1875 C6.83735055 4.40218858 9.34014273 9.02042818 11 14 C11.99429215 21.7412746 10.3180603 27.53477235 6 34 C3.5625 36.4375 3.5625 36.4375 1 38 C0.13375 38.5775 -0.7325 39.155 -1.625 39.75 C-7.70797662 42.0029543 -14.24031026 42.13070076 -20.25 39.5 C-25.67680773 36.35111156 -29.69748617 31.66165869 -32.4375 26.0625 C-33.65340702 19.44256178 -33.77095975 13.91585364 -30.40234375 7.921875 C-22.58806685 -2.78738471 -11.93056538 -6.19471664 0 0 Z " fill="#AA1C1C" transform="translate(269,377)"/>
<path d="M0 0 C0 0.33 0 0.66 0 1 C-3.3 1.33 -6.6 1.66 -10 2 C-10.33 2.99 -10.66 3.98 -11 5 C-12.32 5 -13.64 5 -15 5 C-15 5.66 -15 6.32 -15 7 C-15.66 7 -16.32 7 -17 7 C-17 7.99 -17 8.98 -17 10 C-16.34 10.33 -15.68 10.66 -15 11 C-15.64710938 11.53367187 -16.29421875 12.06734375 -16.9609375 12.6171875 C-19.51315461 15.59966343 -19.520314 17.25161793 -19.625 21.125 C-19.80555556 26.80555556 -19.80555556 26.80555556 -22 29 C-22.33 29.99 -22.66 30.98 -23 32 C-25.99363774 29.00636226 -26.17154648 25.87474515 -26.3125 21.75 C-26.20327794 15.69314012 -24.27604159 11.41383951 -20.12890625 7.015625 C-13.53276625 0.98059332 -8.80668107 -0.34536004 0 0 Z " fill="#A02425" transform="translate(262,374)"/>
<path d="M0 0 C3.5625 0.25 3.5625 0.25 6.5625 2.25 C6.97093923 4.96203652 6.69586867 7.4937142 6.5625 10.25 C5.5725 10.58 4.5825 10.91 3.5625 11.25 C3.5625 11.91 3.5625 12.57 3.5625 13.25 C1.5825 13.25 -0.3975 13.25 -2.4375 13.25 C-2.4375 12.59 -2.4375 11.93 -2.4375 11.25 C-3.4275 10.92 -4.4175 10.59 -5.4375 10.25 C-5.6328125 4.1953125 -5.6328125 4.1953125 -5.4375 2.25 C-3.4375 0.25 -3.4375 0.25 0 0 Z " fill="#383939" transform="translate(306.4375,389.75)"/>
<path d="M0 0 C3.12290635 0.48578543 5.99580359 0.9986012 9 2 C9.36180905 9.35678392 9.36180905 9.35678392 7.875 12 C5.10184376 13.47901666 3.08815875 13.38601984 0 13 C-1.875 11.875 -1.875 11.875 -3 10 C-3.45185216 6.46049143 -3.42109443 4.66673285 -1.5 1.625 C-1.005 1.08875 -0.51 0.5525 0 0 Z " fill="#3A3635" transform="translate(255,390)"/>
<path d="M0 0 C3.875 1.875 3.875 1.875 5 3 C6.0725 3.144375 7.145 3.28875 8.25 3.4375 C11.52233274 3.92834991 14.01261388 4.64209722 17 6 C17 6.66 17 7.32 17 8 C15.68 8.33 14.36 8.66 13 9 C19.09632423 10.32528788 23.97767819 9.46619907 30 8 C30 7.34 30 6.68 30 6 C30.66 6 31.32 6 32 6 C32.33 5.34 32.66 4.68 33 4 C33.495 5.485 33.495 5.485 34 7 C27.44135274 11.53437341 21.96807079 13.2612183 14 12 C8.0573161 10.1659648 4.02888032 6.63321237 0 2 C0 1.34 0 0.68 0 0 Z " fill="#A02223" transform="translate(239,406)"/>
<path d="M0 0 C0.78503906 0.06703125 1.57007813 0.1340625 2.37890625 0.203125 C4.4375 0.75 4.4375 0.75 6.4375 3.75 C6.69510279 6.44452521 6.52650053 9.03548375 6.4375 11.75 C5.7775 11.75 5.1175 11.75 4.4375 11.75 C4.4375 9.11 4.4375 6.47 4.4375 3.75 C1.4675 3.42 -1.5025 3.09 -4.5625 2.75 C-6.87582486 6.21998729 -6.90207563 7.67509248 -6.5625 11.75 C-5.5725 13.235 -5.5725 13.235 -4.5625 14.75 C-5.8825 14.09 -7.2025 13.43 -8.5625 12.75 C-8.58948189 11.12509046 -8.60888757 9.50005367 -8.625 7.875 C-8.63660156 6.97007812 -8.64820313 6.06515625 -8.66015625 5.1328125 C-8.5625 2.75 -8.5625 2.75 -7.5625 0.75 C-4.56887667 -0.24787444 -3.07153629 -0.30361149 0 0 Z " fill="#8B2527" transform="translate(259.5625,388.25)"/>
<path d="M0 0 C0.495 1.485 0.495 1.485 1 3 C-1.09685315 7.11305811 -3.94192338 10.96527639 -8.12109375 13.06640625 C-16.38766694 15.17357196 -24.48626192 13.75686904 -32 10 C-31.67 9.34 -31.34 8.68 -31 8 C-30.071875 8.495 -29.14375 8.99 -28.1875 9.5 C-22.44207052 11.91424107 -16.32163206 12.18304704 -10.43359375 10.0859375 C-5.46469542 7.54827938 -2.62350118 4.90480655 0 0 Z " fill="#EDC9C5" transform="translate(277,406)"/>
<path d="M0 0 C2.51205564 1.07725861 3.93375614 2.16333879 6 4 C2.25 5.125 2.25 5.125 0 4 C0 3.34 0 2.68 0 2 C-3.3 1.67 -6.6 1.34 -10 1 C-9.67 1.99 -9.34 2.98 -9 4 C-10.1875 5.5 -10.1875 5.5 -12 7 C-14.6875 7.1875 -14.6875 7.1875 -17 7 C-17 4 -17 4 -15.25 1.8125 C-10.30066046 -0.94770859 -5.54354669 -0.77804164 0 0 Z " fill="#A01F19" transform="translate(266,375)"/>
<path d="M0 0 C0.99 0 1.98 0 3 0 C2.67 0.969375 2.34 1.93875 2 2.9375 C-0.07033499 10.32517017 0.45238938 17.17196282 4 24 C6.03699905 26.90495532 6.03699905 26.90495532 8 29 C7.34 29.33 6.68 29.66 6 30 C6 29.34 6 28.68 6 28 C5.401875 27.979375 4.80375 27.95875 4.1875 27.9375 C1.29238566 26.69673671 0.74967411 24.97934374 -0.39135742 22.14575195 C-1.51705503 18.17713731 -1.35014885 14.21858426 -1.25 10.125 C-1.24484375 9.25875 -1.2396875 8.3925 -1.234375 7.5 C-1.15481151 1.15481151 -1.15481151 1.15481151 0 0 Z " fill="#EFD4CF" transform="translate(236,384)"/>
<path d="M0 0 C0.66 0 1.32 0 2 0 C3.25390625 1.64453125 3.25390625 1.64453125 4.5625 3.8125 C4.99691406 4.52019531 5.43132812 5.22789062 5.87890625 5.95703125 C7.75582223 9.37733459 8.15894214 12.16182421 8.1875 16 C8.20167969 16.86625 8.21585937 17.7325 8.23046875 18.625 C8 21 8 21 6 24 C5.28917048 21.06782822 5.00731056 18.59791936 5.0625 15.5625 C4.99905428 11.94609421 4.30667658 9.34835873 3 6 C2.01 6.495 2.01 6.495 1 7 C0.67 4.69 0.34 2.38 0 0 Z " fill="#9A2E30" transform="translate(272,380)"/>
<path d="M0 0 C3.12290635 0.48578543 5.99580359 0.9986012 9 2 C9.36180905 9.35678392 9.36180905 9.35678392 7.875 12 C5.10184376 13.47901666 3.08815875 13.38601984 0 13 C-1.875 11.875 -1.875 11.875 -3 10 C-3.1875 6.8125 -3.1875 6.8125 -3 4 C-2.67 4 -2.34 4 -2 4 C-1.67 5.65 -1.34 7.3 -1 9 C1.3260857 9.38063221 3.66055264 9.71269945 6 10 C7.29633621 8.93354885 7.29633621 8.93354885 7.0625 6.4375 C7.041875 5.633125 7.02125 4.82875 7 4 C4.36 3.67 1.72 3.34 -1 3 C-0.67 2.01 -0.34 1.02 0 0 Z " fill="#582C29" transform="translate(255,390)"/>
<path d="M0 0 C3 1 3 1 4.6875 3.375 C6.47304056 8.30649297 6.24928545 12.81116953 6 18 C5.67 18 5.34 18 5 18 C4.93941406 17.37351562 4.87882812 16.74703125 4.81640625 16.1015625 C4.73261719 15.28429687 4.64882813 14.46703125 4.5625 13.625 C4.48128906 12.81289063 4.40007812 12.00078125 4.31640625 11.1640625 C4.10909886 8.95727195 4.10909886 8.95727195 3 7 C0.47266765 6.34444881 0.47266765 6.34444881 -2 6 C-1.49396008 3.83125748 -1.00016187 2.00032373 0 0 Z " fill="#616362" transform="translate(323,383)"/>
<path d="M0 0 C0.66 0.99 1.32 1.98 2 3 C-4.71972553 7.64573617 -9.89364595 8.68184286 -18 8 C-18 7.67 -18 7.34 -18 7 C-15.89679937 6.49595192 -13.79240209 5.99689492 -11.6875 5.5 C-10.51574219 5.2215625 -9.34398437 4.943125 -8.13671875 4.65625 C-5 4 -5 4 -2 4 C-2 3.34 -2 2.68 -2 2 C-1.34 2 -0.68 2 0 2 C0 1.34 0 0.68 0 0 Z " fill="#9F3839" transform="translate(271,410)"/>
<path d="M0 0 C0.99 0.33 1.98 0.66 3 1 C3.3623444 3.76998822 3.71517517 6.54062381 4.0625 9.3125 C4.2181543 10.49102539 4.2181543 10.49102539 4.37695312 11.69335938 C4.47041016 12.45068359 4.56386719 13.20800781 4.66015625 13.98828125 C4.74918213 14.68477783 4.83820801 15.38127441 4.92993164 16.09887695 C5 18 5 18 4 21 C3.01 21.33 2.02 21.66 1 22 C1.165 21.38125 1.33 20.7625 1.5 20.125 C2.6254903 13.09068564 2.33946419 6.72595956 0 0 Z " fill="#EBCBC7" transform="translate(277,384)"/>
<path d="M0 0 C1.5006604 5.57388147 2.20089106 11.29207897 3 17 C2.34 17.33 1.68 17.66 1 18 C-1.42351711 12.09267705 -2.02929235 6.08787705 0 0 Z " fill="#A43F3F" transform="translate(237,388)"/>
<path d="M0 0 C0 0.33 0 0.66 0 1 C-1.2375 1.12375 -2.475 1.2475 -3.75 1.375 C-6.9346199 1.77168072 -9.19162381 2.40858683 -12 4 C-13.99220557 4.68960962 -15.99105606 5.36079057 -18 6 C-17 3 -17 3 -14.0625 1.3125 C-9.46349544 -0.52710182 -4.87368665 -0.26476769 0 0 Z " fill="#6D6F6E" transform="translate(312,374)"/>
<path d="M0 0 C0.2475 0.53625 0.495 1.0725 0.75 1.625 C2.29814886 4.56648283 4.13010957 7.25359843 6 10 C6.99 11.485 6.99 11.485 8 13 C7.01 13.495 7.01 13.495 6 14 C6 13.34 6 12.68 6 12 C5.38125 11.9175 4.7625 11.835 4.125 11.75 C2 11 2 11 0.75 9.375 C-0.25295915 6.1989627 -0.12721966 3.30771122 0 0 Z " fill="#E7C1BD" transform="translate(236,400)"/>
<path d="M0 0 C2.62527189 -0.05382106 5.24944713 -0.09358313 7.875 -0.125 C8.62136719 -0.14175781 9.36773437 -0.15851563 10.13671875 -0.17578125 C12.09194461 -0.1933959 14.04742021 -0.10320189 16 0 C16.66 0.66 17.32 1.32 18 2 C17.13117188 1.97679687 16.26234375 1.95359375 15.3671875 1.9296875 C13.63855469 1.90261719 13.63855469 1.90261719 11.875 1.875 C10.73804688 1.85179687 9.60109375 1.82859375 8.4296875 1.8046875 C4.94242233 2.00327891 2.2446138 2.7475199 -1 4 C-0.67 2.68 -0.34 1.36 0 0 Z " fill="#F2D1D2" transform="translate(248,373)"/>
<path d="M0 0 C0.8971875 0.5259375 0.8971875 0.5259375 1.8125 1.0625 C-1.9375 4.0625 -1.9375 4.0625 -4.1875 4.0625 C-4.1875 4.7225 -4.1875 5.3825 -4.1875 6.0625 C-5.5075 6.0625 -6.8275 6.0625 -8.1875 6.0625 C-8.1875 5.4025 -8.1875 4.7425 -8.1875 4.0625 C-7.1975 4.0625 -6.2075 4.0625 -5.1875 4.0625 C-5.1875 2.7425 -5.1875 1.4225 -5.1875 0.0625 C-2.1875 -0.9375 -2.1875 -0.9375 0 0 Z " fill="#F8F8F8" transform="translate(22.1875,5.9375)"/>
<path d="M0 0 C1.21236328 0.01353516 1.21236328 0.01353516 2.44921875 0.02734375 C3.37154297 0.04474609 3.37154297 0.04474609 4.3125 0.0625 C4.3125 0.3925 4.3125 0.7225 4.3125 1.0625 C1.0125 1.3925 -2.2875 1.7225 -5.6875 2.0625 C-6.0175 3.0525 -6.3475 4.0425 -6.6875 5.0625 C-8.0075 4.7325 -9.3275 4.4025 -10.6875 4.0625 C-7.4284026 0.49301238 -4.73606476 -0.06863862 0 0 Z " fill="#AA4B4E" transform="translate(257.6875,373.9375)"/>
<path d="M0 0 C5.71658336 -0.45732667 8.48649253 0.47726246 13 4 C9.25 5.125 9.25 5.125 7 4 C7 3.34 7 2.68 7 2 C4.69 1.67 2.38 1.34 0 1 C0 0.67 0 0.34 0 0 Z " fill="#9C3034" transform="translate(259,375)"/>
<path d="M0 0 C3.81936528 1.55603771 6.26044438 3.95604931 9 7 C9 7.66 9 8.32 9 9 C5.18063472 7.44396229 2.73955562 5.04395069 0 2 C0 1.34 0 0.68 0 0 Z " fill="#932C2C" transform="translate(239,406)"/>
<path d="M0 0 C0.33 0 0.66 0 1 0 C1.05416188 1.60379341 1.09286638 3.20811406 1.125 4.8125 C1.14820313 5.70582031 1.17140625 6.59914063 1.1953125 7.51953125 C1 10 1 10 -1 13 C-2.51403812 8.15507803 -1.36602172 4.7408989 0 0 Z " fill="#9F3B3C" transform="translate(279,391)"/>
<path d="M0 0 C3.40312738 1.05875074 6.01353231 2.00902154 9 4 C8.67 5.32 8.34 6.64 8 8 C7.6596875 7.071875 7.6596875 7.071875 7.3125 6.125 C5.61545208 3.37739861 3.97485929 3.06789821 1 2 C0.67 1.34 0.34 0.68 0 0 Z " fill="#EBC2BF" transform="translate(268,376)"/>
<path d="M0 0 C0.66 0.99 1.32 1.98 2 3 C0.69593116 5.01920337 -0.63823419 7.01924973 -2 9 C-2.33 9 -2.66 9 -3 9 C-3 7.35 -3 5.7 -3 4 C-2.01 4 -1.02 4 0 4 C0 2.68 0 1.36 0 0 Z " fill="#9B2F32" transform="translate(276,403)"/>
</svg>
