<?xml version="1.0" encoding="UTF-8"?>
<svg version="1.1" viewBox="0 0 2048 656" width="502" height="161" xmlns="http://www.w3.org/2000/svg">
<path transform="translate(586,54)" d="m0 0h25l44 4 24 4 24 6 35 12 29 10 22 7 32 5 24 2 55 1h253l41-1 23-3 25-6 36-12 41-14 22-6 28-5 35-4h34l21 3 19 5 20 9 17 10 16 12 12 11 15 15 9 11 10 13 13 18 24 36 8 10 5 6 8 5 23 6 19 3 9 1 246 1 10 3 10 6 8 8 6 10 3 10v17l-4 11-6 10-7 7-14 7-9 2-241 1-24 3-19 4-13 5-8 6-13 17-13 19-15 22-14 19-7 8-9 11-14 14-11 9-11 8-13 8-16 8-18 6-23 5-16 2h-18l-43-4-24-4-26-7-36-12-30-11-22-6-22-4-15-2-25-1h-111l-147-1-25 1-53 1-26 3-26 5-36 12-30 11-25 7-21 5-29 4-39 3h-11l-23-3-11-3-2-7-1 6-22-8-20-11-16-12-15-13-10-10-9-11-10-12-12-16-23-34-10-14-11-12-9-5-24-6-21-3-262-1-13-4-10-7-7-7-7-14-2-9v-9l3-12 6-11 5-6 10-7 9-4 4-1 257-1 34-5 15-4 9-4 6-4 13-17 12-17 13-19 10-14 10-13 13-16 16-16 11-9 16-12 21-11 18-6 13-4z" fill="#FD1D0B"/>
<path transform="translate(1404,54)" d="m0 0h34l21 3 19 5 20 9 17 10 16 12 12 11 15 15 9 11 10 13 13 18 24 36 8 10 5 6 8 5 23 6 19 3 9 1 246 1 10 3 10 6 8 8 6 10 3 10v17l-4 11-6 10-7 7-14 7-9 2-241 1-24 3-19 4-13 5-8 6-13 17-13 19-15 22-14 19-7 8-9 11-14 14-11 9-11 8-13 8-16 8-18 6-23 5-16 2h-18l-43-4-24-4-26-7-36-12-30-11-22-6-22-4-15-2-49-2v-337l7-1 41-1 23-3 25-6 36-12 41-14 22-6 28-5z" fill="#D7B27E"/>
<path transform="translate(793,100)" d="m0 0h14l24 3 14 1 55 1h244l2 1v337l-60 1h-27l-147-1-25 1-53 1-26 3-11 2h-4l-1-173v-69z" fill="#00750F"/>
<path transform="translate(1428,54)" d="m0 0h10l21 3 19 5 20 9 17 10 16 12 12 11 15 15 9 11 10 13 13 18 24 36 8 10 5 6 8 5 23 6 19 3 9 1 246 1 10 3 10 6 8 8 6 10 3 10v17l-4 11-6 10-7 7-14 7-9 2-241 1-24 3-19 4-13 5-8 6-13 17-13 19-15 22-14 19-7 8-9 11-14 14-11 9-11 8-13 8-16 8-18 6-23 5h-5l3-4v-50l-1-120v-148h-44l-1-58v-42l1-12h44l2-1-5-1-15-1z" fill="#D8B37E"/>
<path transform="translate(558,59)" d="m0 0 2 1-1 113v304l-1 11 2 1h-3l-2-7-1 6-22-8-20-11-16-12-15-13-10-10-9-11-10-12-12-16-23-34-10-14-11-12-9-5-24-6-21-3-262-1-13-4-10-7-7-7-7-14-2-9v-9l3-12 6-11 5-6 10-7 9-4 4-1 257-1 34-5 15-4 9-4 6-4 13-17 12-17 13-19 10-14 10-13 13-16 16-16 11-9 16-12 21-11 18-6z" fill="#D8B37E"/>
<path transform="translate(676,62)" d="m0 0 11 2 19 5 55 19 28 9 12 2v1h-8v350l-6 2-21 6-28 10-22 8-25 7-12 3h-3z" fill="#D7B27D"/>
<path transform="translate(1029,105)" d="m0 0h115l2 1v337l-60 1h-27l-31-1v-337z" fill="#000100"/>
<path transform="translate(910,106)" d="m0 0h118v337h-118z" fill="#D7B27D"/>
<path transform="translate(78,229)" d="m0 0h257l-6 7-2 4v21l5 24 8 24 6 10 2 2-268-1-13-4-10-7-7-7-7-14-2-9v-9l3-12 6-11 5-6 10-7 9-4z" fill="#8B8D8C"/>
<path transform="translate(1681,228)" d="m0 0 251 1 10 3 10 6 8 8 6 10 3 10v17l-4 11-6 10-7 7-14 7-9 2-250 1 3-2 4-2 5-12 1-6v-10l-3-22-8-37z" fill="#8B8D8C"/>
<path transform="translate(1402,268)" d="m0 0h41l1 34v178h-41l-2-2-1-67v-48l1-92z" fill="#716238"/>
<path transform="translate(1400,59)" d="m0 0h46l1 1-2 93-1 18h-44l-1-58v-42z" fill="#DCC76B"/>
<path transform="translate(1401,171)" d="m0 0h43l1 100-1 31h-1v-34h-41l-1 95h-1l-1-5v-93l1-9v-64z" fill="#B8A368"/>
<path transform="translate(1444,319)" d="m0 0h1l1 120v50l-4 4-11 2h-18l-15-3-2-5 2-40 1-45h1l1 9 1 67 1 1 41 1z" fill="#B3A16D"/>
<path transform="translate(1416,54)" d="m0 0h12v1l18 2 2 2-4 1h-41l-2-1 1-3 12-1z" fill="#B9A468"/>
</svg>
