<?xml version="1.0" encoding="UTF-8"?>
<svg version="1.1" viewBox="0 0 2048 597" width="507" height="148" xmlns="http://www.w3.org/2000/svg">
<path transform="translate(615,71)" d="m0 0h15l40 3 27 4 25 6 20 6 41 15 25 8 35 6 13 1 40 1 74 1h31l71-1h125l21-1 26-4 26-7 28-10 24-9 24-7 27-6 29-4 33-2h12l26 3 20 5 18 8 17 9 13 10 14 12 17 17 11 14 8 10 14 20 19 28 10 14 8 8 12 6 16 4 25 4 246 1 9 2 11 6 6 5 7 10 4 9 1 4v18l-4 12-8 11-7 6-10 5-10 2-242 1-30 5-18 5-8 5-8 8-14 19-10 15-16 23-13 17-9 10-9 11-7 7-11 9-10 8-16 10-21 10-20 6-22 4-11 1h-14l-35-3-26-4-30-7-36-12-36-13-28-7-18-3-30-2-25-1-1 1h-121l-2-3-3 3h-110l-66 1-25 2-30 5-29 9-43 15-24 7-34 7-40 4h-31l-26-4-3-5-1 2-5-1-19-7-17-10-16-12-14-12-14-14-9-11-14-18-13-19-12-17-8-12-10-13-7-6-8-4-20-5-23-4-261-1-13-4-11-8-8-11-5-13v-16l3-10 5-9 8-9 11-7 11-3 252-1 31-4 19-5 10-5 7-6 10-13 8-12 17-25 13-18 11-14 9-9 7-8 8-8 11-9 13-10 17-10 11-5 18-5 9-3 12-2z" fill="#FE8D00"/>
<path transform="translate(1435,71)" d="m0 0h12l26 3 20 5 18 8 17 9 13 10 14 12 17 17 11 14 8 10 14 20 19 28 10 14 8 8 12 6 16 4 25 4 246 1 9 2 11 6 6 5 7 10 4 9 1 4v18l-4 12-8 11-7 6-10 5-10 2-242 1-30 5-18 5-8 5-8 8-14 19-10 15-16 23-13 17-9 10-9 11-7 7-11 9-10 8-16 10-21 10-20 6-22 4-11 1h-14l-35-3-26-4-30-7-36-12-36-13-28-7-18-3-30-2-25-1-3 1 1-335 53-2 26-4 26-7 28-10 24-9 24-7 27-6 29-4z" fill="#D8B37D"/>
<path transform="translate(1455,73)" d="m0 0h11l20 4 12 4 23 11 11 7 14 11 13 12 13 13 11 14 8 10 14 20 19 28 10 14 8 8 12 6 16 4 25 4 246 1 9 2 11 6 6 5 7 10 4 9 1 4v18l-4 12-8 11-7 6-10 5-10 2-242 1-30 5-18 5-8 5-8 8-14 19-10 15-16 23-13 17-9 10-9 11-7 7-11 9-10 8-16 10-21 10-20 6-22 4h-6l1-2 5-1 2-4 3-9-1-121v-86l-1-6v-127l1-58v-18h-6z" fill="#D8B37D"/>
<path transform="translate(581,77)" d="m0 0h1v238l1 171 1 17-3-1-2-4-1 2-5-1-19-7-17-10-16-12-14-12-14-14-9-11-14-18-13-19-12-17-8-12-10-13-7-6-8-4-20-5-23-4-261-1-13-4-11-8-8-11-5-13v-16l3-10 5-9 8-9 11-7 11-3 252-1 31-4 19-5 10-5 7-6 10-13 8-12 17-25 13-18 11-14 9-9 7-8 8-8 11-9 13-10 17-10 11-5z" fill="#D8B37D"/>
<path transform="translate(615,71)" d="m0 0h15l40 3 27 4 3 1v395l-1 25-20 4-40 4h-31l-24-4-1-1-1-16-1-171v-88l1-150 8-3 12-2z" fill="#FD1D0B"/>
<path transform="translate(700,79)" d="m0 0 19 4 26 8 38 14 25 8 16 3v1h-7l-2-1v347l-29 9-52 18-21 6-9 2h-5z" fill="#D7B27D"/>
<path transform="translate(815,116)" d="m0 0 21 2 20 2 75 2v334l-1 1-66 1-25 2-19 3h-5l-1-159z" fill="#00730E"/>
<path transform="translate(931,122)" d="m0 0h117v295l1 39h44v1h-48l-2-3-3 3-109-1z" fill="#D8B37D"/>
<path transform="translate(109,244)" d="m0 0h246l6 1-6 8-2 3v18l4 20 8 27 3 9v4h-260l-13-4-11-8-8-11-5-13v-16l3-10 5-9 8-9 11-7z" fill="#8C8D8C"/>
<path transform="translate(1812,244)" d="m0 0h129l9 2 11 6 6 5 7 10 4 9 1 4v18l-4 12-8 11-7 6-10 5-10 2h-239l2-11 1-5v-19l-3-22-5-22-4-10z" fill="#8C8D8D"/>
<path transform="translate(1422,282)" d="m0 0h34l2 1 1 3 1 53v153l-1 1h-40l-2-1v-203l1-6z" fill="#695F36"/>
<path transform="translate(1422,187)" d="m0 0h37l1 91 1 6v33l-1 22h-1l-1-56h-40l-1 209h42l1-122h1l1 121-4 10-4 4-3 1h-26l-7-1-2-3-2-12 1-56 1-154 1-32v-56z" fill="#A99B6D"/>
<path transform="translate(1458,74)" d="m0 0 3 1v18l-1 58-1 36-43-1-1-59v-31l1-20 31-1z" fill="#E2CA6D"/>
<path transform="translate(1463,73)" d="m0 0 15 2 18 5 25 12 11 7 14 11 13 12 13 13 11 14 8 10 14 20 19 28 10 14 8 8 12 6 16 4 18 3 2 4h-10l-5-1-15-1-13-5-11-8-5-4-6-10-3-7-5-5-4-7-9-11-10-14-7-11-10-11-6-8-26-26-11-8-13-9-19-10-19-9-14-5-6-1z" fill="#EDC897"/>
<path transform="translate(1402,73)" d="m0 0h11l-1 4-13-1-19 6-9 1-13 4-12 3-19 6-16 7-37 13-28 7-30 3h-7l-4-2-27 1h-13v-3l53-2 26-4 26-7 28-10 24-9 24-7 27-6z" fill="#ECC694"/>
<path transform="translate(581,77)" d="m0 0 1 3-2 4-13 2-11 6-17 10-11 8-15 12h-2l-2 4-8 9h-2l-2 4-3 3h-2v2h-2l-2 5-9 10-11 16-6 9-6 10h-2l-2 5-10 15-9 11-8 7-10 6-14 4-12 2h-13l-6-1v-1l27-4 17-5 8-5 6-5 10-13 8-12 17-25 13-18 11-14 9-9 7-8 8-8 11-9 13-10 17-10 11-5z" fill="#ECC796"/>
<path transform="translate(700,79)" d="m0 0 19 4 26 8 38 14 25 8 16 3v1h-7l-2-1-1 12-2-3-3-3-12-5-14-3-14-5-15-5-9-4-17-5-16-5-7-2-4-5z" fill="#ECC694"/>
<path transform="translate(1416,326)" d="m0 0h1v166h42l1-122h1l1 121-4 10-4 4-3 1h-26l-7-1-2-3-2-12 1-56z" fill="#A29875"/>
<path transform="translate(492,441)" d="m0 0h2v2l4 2 13 13 16 14 9 7h-3l-13-10-13-11-14-14z" fill="#F0D3AC"/>
<path transform="translate(536,480)" d="m0 0 6 2 14 8 21 8 1 2-5-1-19-7-17-10z" fill="#EDCB9D"/>
<path transform="translate(295,331)" d="m0 0h15l1 1 20 1v1h-30l-6-2z" fill="#695F36"/>
<path transform="translate(932,452)" d="m0 0 4 2 14 1v1h-19z" fill="#ECC591"/>
</svg>
