<?xml version="1.0" encoding="UTF-8"?>
<svg version="1.1" viewBox="0 0 2048 545" width="499" height="133" xmlns="http://www.w3.org/2000/svg">
<path transform="translate(615,67)" d="m0 0 36 2 35 4 24 5 24 7 29 10 24 9 24 7 33 5 9 1 21 1 58 1h118l166-1 31-4 26-7 44-15 19-7 26-7 30-6 24-3 28-2h11l26 3 20 5 16 6 22 12 12 9 13 11 10 9 12 13 9 11 12 16 16 23 16 24 11 14 8 7 12 5 23 5 13 2 249 1 11 2 14 7 9 9 7 14 2 8v13l-4 13-7 11-9 8-11 5-10 2-246 1-26 4-20 5-11 6-7 7-14 20-10 15-16 23-16 21-10 11-7 8-7 7-11 9-10 8-14 9-17 9-22 7-25 5-7 1h-28l-38-4-29-5-35-10-44-16-26-8-24-5-18-2-17-1h-328l-30 2-32 5-19 5-26 9-24 9-27 8-27 6-27 4-34 3h-18l-23-3-8-2-8-3-19-7-17-9-14-10-11-9-26-26-9-11-15-20-11-16-17-25-12-16-8-6-13-5-17-4-20-3-265-1-13-4-10-7-8-9-6-13-2-10 1-12 5-13 6-8 8-8 12-6 10-2 256-1 24-3 16-3 16-6 7-6 7-8 9-12 10-15 16-23 13-18 10-11 7-8 11-12 11-10 19-14 18-10 20-8 19-5z" fill="#884A16"/>
<path transform="translate(1444,67)" d="m0 0h11l26 3 20 5 16 6 22 12 12 9 13 11 10 9 12 13 9 11 12 16 16 23 16 24 11 14 8 7 12 5 23 5 13 2 249 1 11 2 14 7 9 9 7 14 2 8v13l-4 13-7 11-9 8-11 5-10 2-246 1-26 4-20 5-11 6-7 7-14 20-10 15-16 23-16 21-10 11-7 8-7 7-11 9-10 8-14 9-17 9-22 7-25 5-7 1h-28l-38-4-29-5-35-10-44-16-26-8-24-5-18-2-17-1-32-1-1-340 47-1 31-4 26-7 44-15 19-7 26-7 30-6 24-3z" fill="#D8B47E"/>
<path transform="translate(815,113)" d="m0 0 14 1 24 3 21 1 58 1h237l1 2v338l-296 1-30 2-26 4h-3l-1-68v-213z" fill="#00730E"/>
<path transform="translate(1466,69)" d="m0 0h8l20 4 18 6 16 8 14 8 14 11 15 13 9 9 9 11 10 12 13 18 22 33 12 16 9 10 12 6 20 5 19 3 249 1 11 2 14 7 9 9 7 14 2 8v13l-4 13-7 11-9 8-11 5-10 2-246 1-26 4-20 5-11 6-7 7-14 20-10 15-16 23-16 21-10 11-7 8-7 7-11 9-10 8-14 9-17 9-22 7-25 5-4-1 5-2 1-2 1-29-1-126v-49l1-22-1-7-1-35v-52h-36l-8-1v-109l1-2 42-1 1-2z" fill="#D8B47E"/>
<path transform="translate(577,73)" d="m0 0h2l1 3v426l1 4-10-3-19-7-17-9-14-10-11-9-26-26-9-11-15-20-11-16-17-25-12-16-8-6-13-5-17-4-20-3-265-1-13-4-10-7-8-9-6-13-2-10 1-12 5-13 6-8 8-8 12-6 10-2 256-1 24-3 16-3 16-6 7-6 7-8 9-12 10-15 16-23 13-18 10-11 7-8 11-12 11-10 19-14 18-10 20-8z" fill="#D8B47E"/>
<path transform="translate(697,76)" d="m0 0 9 1 25 7 32 11 24 9 24 7 5 1-1 73v281l-25 7-53 19-25 7-13 3-3-1v-244z" fill="#D7B37D"/>
<path transform="translate(1060,119)" d="m0 0h109l1 2v338h-119v-339z" fill="#010100"/>
<path transform="translate(1050,119)" d="m0 0h10v1h-9v339h-119v-82l1-257z" fill="#D7B47E"/>
<path transform="translate(100,243)" d="m0 0h43l210 1-6 9-2 4v15l3 17 8 29 5 15v2h-264l-13-4-10-7-8-9-6-13-2-10 1-12 5-13 6-8 8-8 12-6z" fill="#8B8D8C"/>
<path transform="translate(1708,243)" d="m0 0h247l11 2 14 7 9 9 7 14 2 8v13l-4 13-7 11-9 8-11 5-10 2h-244l5-13 1-4v-15l-3-22-6-28z" fill="#8C8D8B"/>
<path transform="translate(1427,283)" d="m0 0h42l1 59v154h-43l-1-1v-198z" fill="#6B623C"/>
<path transform="translate(1426,185)" d="m0 0h43l2 87 1 14-1 15-1 41h-1v-59h-42v212l43 1v-146h1l1 133-1 22-4 4-6 2h-28l-9-3-2-6 1-20 1-48v-152l1-8z" fill="#B6A36E"/>
<path transform="translate(1468,72)" d="m0 0h2v63l-1 50h-36l-8-1v-109l1-2z" fill="#E3D273"/>
<path transform="translate(996,267)" d="m0 0 7 1 2 2 1 6v67l-3 9h-3l-2-4-4 6h-3l-2-14h-1l-2-12-1-3v-36l1-1 2-14h1l1 7 2-13z" fill="#B5A26E"/>
<path transform="translate(993,273)" d="m0 0h3l3 3h2l1 19v19l-1 27-2-1-1-8-1 11-4 4-2-1v-69z" fill="#854C19"/>
<path transform="translate(578,73)" d="m0 0 2 3v48l-1 212h-1l-1-21v-214z" fill="#B6A36E"/>
<path transform="translate(981,272)" d="m0 0 2 1v80h-2l-1-3-1-11v-61z" fill="#A8986C"/>
<path transform="translate(991,277)" d="m0 0 3 1 1 5v50l-1 5h-1l-1 8h-1z" fill="#574410"/>
<path transform="translate(1e3 276)" d="m0 0 3 1 1 8v41l-1 14-3 3z" fill="#8B8D8C"/>
<path transform="translate(999,276)" d="m0 0h2l1 19v19l-1 27-2-1-1-11v-50z" fill="#506630"/>
<path transform="translate(988,274)" d="m0 0h1v66h-1l-2-12-1-3v-36l1-1z" fill="#897664"/>
<path transform="translate(578,404)" d="m0 0h1l1 98 1 4-3-1-2-4v-20z" fill="#B6A36E"/>
<path transform="translate(1432,69)" d="m0 0h30l7 1-1 3h-36l-5-2v-1z" fill="#B6A36E"/>
<path transform="translate(1e3 307)" d="m0 0h1v34l-2-1-1-11v-21z" fill="#6B623C"/>
<path transform="translate(995,319)" d="m0 0h1v21l-2 7-2-1v-13h2z" fill="#6B623C"/>
</svg>
