<?xml version="1.0" encoding="UTF-8"?>
<svg version="1.1" viewBox="0 0 2048 552" width="519" height="140" xmlns="http://www.w3.org/2000/svg">
<path transform="translate(613,66)" d="m0 0h31l34 3 25 4 26 7 44 15 27 9 16 4 23 4 27 2 76 1h77l180-1 25-3 23-5 23-7 18-7 46-15 28-6 33-4 14-1h28l22 3 16 4 22 9 15 9 15 11 17 16 10 10 8 10 14 18 16 24 16 23 9 12 8 7 13 5 16 4 26 3h218l18 1 10 3 10 6 7 7 5 9 4 11v16l-5 13-8 11-8 6-13 5-10 1h-228l-32 5-16 5-8 4-10 9-13 19-7 10-15 22-12 16-7 9-11 12-7 8-10 9-14 11-15 10-16 8-18 6-23 5-7 1h-34l-35-4-27-5-21-6-33-11-24-9-28-8-24-4-30-2h-296l-31 1-22 2-27 5-26 8-36 13-26 8-26 6-21 3-32 3h-25l-21-3-13-4-16-6-21-11-15-11-10-9-10-8-7-8-9-10-13-17-13-18-16-24-12-16-9-10-10-5-20-5-19-3-3-1h-249l-12-2-10-5-10-9-6-10-3-9-1-5 1-13 5-13 6-8 9-8 8-4 6-2 32-1h215l31-4 17-4 10-4 8-7 9-11 11-16 13-19 10-14 10-13 9-11 12-13 9-9 11-9 17-12 19-10 13-5 18-5z" fill="#894916"/>
<path transform="translate(1409,66)" d="m0 0h28l22 3 16 4 22 9 15 9 15 11 17 16 10 10 8 10 14 18 16 24 16 23 9 12 8 7 13 5 16 4 26 3h218l18 1 10 3 10 6 7 7 5 9 4 11v16l-5 13-8 11-8 6-13 5-10 1h-228l-32 5-16 5-8 4-10 9-13 19-7 10-15 22-12 16-7 9-11 12-7 8-10 9-14 11-15 10-16 8-18 6-23 5-7 1h-34l-35-4-27-5-21-6-33-11-24-9-28-8-24-4-30-2-26-1 1-99 1-22v-21l-2-79v-106l42-1 25-3 23-5 23-7 18-7 46-15 28-6 33-4z" fill="#D7B37A"/>
<path transform="translate(814,110)" d="m0 0 19 1 16 2 17 1 76 1h215l1 106 2 82v21l-1 19-1 80-1 20h-270l-31 1-22 2-20 3-1-185z" fill="#D5B179"/>
<path transform="translate(1447,68)" d="m0 0h7l21 5 22 9 15 9 15 11 17 16 10 10 8 10 14 18 16 24 16 23 9 12 8 7 13 5 16 4 26 3h218l18 1 10 3 10 6 7 7 5 9 4 11v16l-5 13-8 11-8 6-13 5-10 1h-228l-32 5-16 5-8 4-10 9-13 19-7 10-15 22-12 16-7 9-11 12-7 8-10 9-14 11-15 10-16 8-18 6-23 5h-6l4-7 1-5 1-208-2-23v-69l-2-1h2v-107l-1-2z" fill="#D7B37A"/>
<path transform="translate(586,71)" d="m0 0h2v416l-18-6-21-10-19-13-11-10-10-8-7-8-9-10-13-17-13-18-16-24-12-16-9-10-10-5-20-5-19-3-3-1h-249l-12-2-10-5-10-9-6-10-3-9-1-5 1-13 5-13 6-8 9-8 8-4 6-2 32-1h215l31-4 17-4 10-4 8-7 9-11 11-16 13-19 10-14 10-13 9-11 12-13 9-9 11-9 17-12 19-10 13-5z" fill="#D7B37A"/>
<path transform="translate(701,73)" d="m0 0 18 4 40 13 34 12 17 5 17 3v1h-8l-5-1v339l-27 8-28 10-36 12-20 5-2-1z" fill="#D6B279"/>
<path transform="translate(814,110)" d="m0 0 19 1 28 4 1 1 66 1v325l-11 1h-30l-31 1-22 2-20 3-1-185z" fill="#030101"/>
<path transform="translate(1042,115)" d="m0 0h112l2 1 1 113v187l-1 26h-114z" fill="#010000"/>
<path transform="translate(154,234)" d="m0 0h206l8 2-1 4-3 3-1 5v17l5 23 6 21 4 10v3l-7 1h-242l-12-2-10-5-10-9-6-10-3-9-1-5 1-13 5-13 6-8 9-8 8-4 6-2z" fill="#8B8C8B"/>
<path transform="translate(1789,235)" d="m0 0h127l10 3 10 6 7 7 5 9 4 11v16l-5 13-8 11-8 6-13 5-10 1h-218l-11-1 1-5 4-13v-14l-4-23-6-25-2-5 1-1z" fill="#8A8B8B"/>
<path transform="translate(1409,269)" d="m0 0h26l7 2 2 2 1 67v137l-1 1h-41l-1-1v-198l2-8z" fill="#695E32"/>
<path transform="translate(1410,178)" d="m0 0h32l2 1 1 71 2 26-1 203-3 9-4 4h-34l-4-3-1-9v-123l-1-82 2-9 1-15v-61l1-10zm-1 91-5 2-2 8v198l1 1h41l1-1v-137l-1-67-3-3-11-1z" fill="#BD9E64"/>
<path transform="translate(1401,70)" d="m0 0h43l1 1v89l-1 18h-41l-2-7-1-49v-33z" fill="#D7CF67"/>
<path transform="translate(1042,115)" d="m0 0h112l2 1 1 113v187l-1 26h-1l-1-101v-75l1-149h-113z" fill="#6A5E31"/>
<path transform="translate(587,74)" d="m0 0h1v413h-1l-1-7v-106l-1-39v-87l1-63z" fill="#BD9E64"/>
<path transform="translate(1401,399)" d="m0 0h1l1 78h41l2-1-2 11-5 5h-34l-4-3-1-9v-80z" fill="#BE9F65"/>
<path transform="translate(701,73)" d="m0 0h1l1 44v98l1 37v38l-1 35v151l-2-2z" fill="#BD9E64"/>
<path transform="translate(1154,115)" d="m0 0h3l1 106 2 82v21l-1 19-1 80-1 20h-105v-1h104v-326z" fill="#B1996C"/>
<path transform="translate(1155,229)" d="m0 0h2v62h-2v50h-1v-75z" fill="#755628"/>
<path transform="translate(1409,66)" d="m0 0h28l10 1v2l-4 1h-40l-1-3z" fill="#C4A86B"/>
<path transform="translate(854,114)" d="m0 0 75 1v9h-1v-7h-66l-1-1-7-1z" fill="#6B653E"/>
<path transform="translate(1529,105)" d="m0 0 8 6 17 17 8 10 3 5-4-2-12-13-20-20z" fill="#E8E4AB"/>
<path transform="translate(1409,269)" d="m0 0h26l7 2 1 2h-31l-9 1 1-3z" fill="#894916"/>
<path transform="translate(1199,114)" d="m0 0h9v1l-8 1-37 1-5 1-1-3z" fill="#DCD57B"/>
<path transform="translate(1505,87)" d="m0 0 11 7 11 8 2 3-5-1-10-9-8-5z" fill="#E2DC91"/>
</svg>
