<?xml version="1.0" encoding="UTF-8"?>
<svg version="1.1" viewBox="0 0 2048 533" width="484" height="126" xmlns="http://www.w3.org/2000/svg">
<path transform="translate(1440,26)" d="m0 0 22 2 24 5 16 5 13 6 16 9 15 11 13 11 19 19 9 11 13 17 14 20 20 30 10 13 6 7 9 5 13 4 19 4 13 2 12 1h240l16 2 12 6 10 9 7 11 3 9 1 5v12l-3 11-4 8-7 9-9 7-13 5-5 1-254 1-32 5-19 5-9 6-11 13-10 14-10 15-14 20-8 11-12 15-9 11-7 7-5 6-8 7-13 11-14 9-18 10-17 7-26 6-19 3h-19l-24-2-32-4-24-5-25-7-53-18-21-7-25-6-24-3-39-2h-6l-2-4v-4h-2l1 7-1 1h-127l-2-5v4l-2 1-172 1-23 1-27 3-24 5-26 8-43 15-30 9-29 6-25 3-38 3-18-1-24-4-20-7-12-5-17-10-11-8-10-8-12-11-15-15-22-28-12-17-23-34-9-11-6-7-8-5-22-6-28-4-271-1-13-4-9-6-8-8-6-10-3-10v-18l4-12 7-11 9-8 12-6 12-2h221l42-1 29-4 20-5 10-5 10-10 12-16 10-15 11-16 12-17 8-10 11-13 12-14 11-10 11-9 11-8 20-12 14-6 19-6 26-4h29l43 4 27 5 30 8 46 16 19 7 24 6 27 4 26 2 55 1h252l5 1 1 6 1-6 46-2 29-4 24-6 33-11 15-6 36-12 38-8 25-3 18-2z" fill="#D8B47E"/>
<path transform="translate(1440,26)" d="m0 0 22 2 24 5 16 5 13 6 16 9 15 11 13 11 19 19 9 11 13 17 14 20 20 30 10 13 6 7 9 5 13 4 19 4 13 2 12 1h240l16 2 12 6 10 9 7 11 3 9 1 5v12l-3 11-4 8-7 9-9 7-13 5-5 1-254 1-32 5-19 5-9 6-11 13-10 14-10 15-14 20-8 11-12 15-9 11-7 7-5 6-8 7-13 11-14 9-18 10-17 7-26 6-19 3h-19l-24-2-32-4-24-5-25-7-53-18-21-7-25-6-24-3-39-2h-6l-2-4v-4h-2l1 7-1 1h-123l-1-1-1-57v-292l29-1h91l5 1 1 6 1-6 46-2 29-4 24-6 33-11 15-6 36-12 38-8 25-3 18-2z" fill="#D8B47E"/>
<path transform="translate(1440,26)" d="m0 0 22 2 24 5 16 5 13 6 16 9 15 11 13 11 19 19 9 11 13 17 14 20 20 30 10 13 6 7 9 5 13 4 19 4 13 2 12 1h240l16 2 12 6 10 9 7 11 3 9 1 5v12l-3 11-4 8-7 9-9 7-13 5-5 1-254 1-32 5-19 5-9 6-11 13-10 14-10 15-14 20-8 11-12 15-9 11-7 7-5 6-8 7-13 11-14 9-18 10-17 7-26 6-19 3h-19l-17-3-2-4 1-22 1-44v-165l1-9 1-79 1-11 6-1-7-2v-111l4-1 7 1h7l-13-1-3-1v-4l2-1z" fill="#D8B47E"/>
<path transform="translate(544,31)" d="m0 0h5l-2 2-3 1-1 23v422l-12-3-20-8-17-10-11-8-10-8-12-11-15-15-22-28-12-17-23-34-9-11-6-7-8-5-22-6-28-4-271-1-13-4-9-6-8-8-6-10-3-10v-18l4-12 7-11 9-8 12-6 12-2h221l42-1 29-4 20-5 10-5 10-10 12-16 10-15 11-16 12-17 8-10 11-13 12-14 11-10 11-9 11-8 20-12 14-6z" fill="#D7B47E"/>
<path transform="translate(570,27)" d="m0 0h29l43 4 18 3 3 2 1 9v429l-5 3-25 4-49 4-18-1-24-4-1-2v-421l1-23 6-2v-2z" fill="#884B16"/>
<path transform="translate(662,35)" d="m0 0 15 3 25 7 43 15 19 7 24 6-2 1v35l-1 68 1 212v49l-7 2-29 9-43 15-30 9-15 3 1-2v-429z" fill="#D7B37D"/>
<path transform="translate(1057,80)" d="m0 0h91l4 1v350h-122l-1-1-1-57v-292z" fill="#FD8D01"/>
<path transform="translate(786,74)" d="m0 0h8l21 3 26 2 55 1 9 1 1 24v86l-1 240-55 1-23 1-27 3-9 2h-5l-1-49-1-212 1-68z"/>
<path transform="translate(50,208)" d="m0 0h260l-4 6-5 8v20l4 20 8 27 4 11v3h-272l-13-4-9-6-8-8-6-10-3-10v-18l4-12 7-11 9-8 12-6z" fill="#8B8D8B"/>
<path transform="translate(1706,208)" d="m0 0h250l16 2 12 6 10 9 7 11 3 9 1 5v12l-3 11-4 8-7 9-9 7-13 5-5 1h-253l2-6 3-7 1-5v-12l-3-24-5-26-3-12z" fill="#8B8D8B"/>
<path transform="translate(1443,249)" d="m0 0h11l5 1 2 90v91l-1 38h-41l-2-1-1-3-1-82v-59l1-61 1-12 1-1z" fill="#675E35"/>
<path transform="translate(1416,148)" d="m0 0h35l9 1 1 73 1 19 1 11-1 12-1 76h-1l-1-49v-41h-16l-25 1-1 12-1 64v56l1 85 43 1v-38l1-13h1v58l-1 5-12 4h-19l-17-3-2-4 1-22 1-44v-165l1-9 1-79z" fill="#B79E64"/>
<path transform="translate(1416,33)" d="m0 0 10 1h21l7-1h8v53l-2 61-1 1h-27l-16-2-1-1v-111z" fill="#E2CB7C"/>
<path transform="translate(905,81)" d="m0 0h2l1 2 2 167v96l-1 75-1 8-3 1z" fill="#9D8252"/>
<path transform="translate(1415,383)" d="m0 0h1l1 85 43 1v-38l1-13h1v58l-1 5-12 4h-19l-17-3-2-4 1-22 1-43 1-1z" fill="#B19C6B"/>
<path transform="translate(784,202)" d="m0 0h1l1 187v49l-3-1-1-4v-135l-1-34v-18l2-41z" fill="#947742"/>
<path transform="translate(544,31)" d="m0 0h5l-2 2-3 1-1 23-1 266h-1l-1-234v-37l1-18z" fill="#B89E62"/>
<path transform="translate(1434,28)" d="m0 0h12l12 1 3 2-5 2-23 1-13-1-3-1v-3z" fill="#B89F64"/>
<path transform="translate(1496,37)" d="m0 0 6 1 13 6 16 9 15 11 13 11 19 19 5 7-4-2-31-31-14-10-16-10-12-6-10-4z" fill="#E7D494"/>
<path transform="translate(785,74)" d="m0 0h1v35l-1 68h-1l-1-72v-22l1-8z" fill="#977747"/>
<path transform="translate(1418,247)" d="m0 0h38l3 1v2h-16l-25 1-1 12h-1v-14z" fill="#8B8D8C"/>
<path transform="translate(783,380)" d="m0 0h1l1 41v17l-2-1-1-4v-52z" fill="#B29C68"/>
<path transform="translate(1583,102)" d="m0 0 5 4 12 16-1 2-11-13-5-7z" fill="#E5D08B"/>
</svg>
