<?xml version="1.0" encoding="UTF-8"?>
<svg version="1.1" viewBox="0 0 2048 574" width="499" height="140" xmlns="http://www.w3.org/2000/svg">
<path transform="translate(605,31)" d="m0 0h11l31 2 34 4 31 7 26 8 35 13 28 9 34 6 34 2 78 1h69l57-1h67l29 1 48-2 21-3 28-7 26-9 24-9 21-7 29-7 31-5 23-2 29-1 25 3 21 5 17 7 19 10 12 9 11 9 25 25 11 14 10 13 11 16 21 31 9 12 7 7 13 6 16 4 26 4 248 1 12 3 11 7 8 8 7 14 2 15-2 13-7 14-9 9-14 7-4 1-13 1h-229l-31 4-21 5-10 4-13 13-13 18-16 24-11 15-9 12-9 11-10 11-7 8-15 13-15 11-16 9-15 7-20 6-21 4-8 1h-26l-38-4-28-5-24-6-30-10-27-10-22-7-27-6-16-2-14-1-28-1-8-2-1 3h-122l-3-4-3 3-172 1-29 2-30 5-28 8-43 15-25 8-38 8-39 4-13 1h-15l-23-3-10-2-3-4-5 1-21-8-17-10-17-13-14-12-13-13-9-11-12-15-14-20-13-19-8-12-10-13-4-5-10-6-13-4-20-4-12-2-260-1-14-2-13-7-8-8-6-11-4-13v-9l4-15 7-11 10-9 13-6 5-1 257-1 25-3 25-6 10-5 8-7 11-15 11-16 13-19 12-17 11-14 7-7 7-8 15-15 14-11 11-8 20-11 12-4 12-3 9-3 13-2z" fill="#FE8D01"/>
<path transform="translate(1440,31)" d="m0 0h9l25 3 21 5 17 7 19 10 12 9 11 9 25 25 11 14 10 13 11 16 21 31 9 12 7 7 13 6 16 4 26 4 248 1 12 3 11 7 8 8 7 14 2 15-2 13-7 14-9 9-14 7-4 1-13 1h-229l-31 4-21 5-10 4-13 13-13 18-16 24-11 15-9 12-9 11-10 11-7 8-15 13-15 11-16 9-15 7-20 6-21 4-8 1h-26l-38-4-28-5-24-6-30-10-27-10-22-7-27-6-16-2-14-1-28-1-8-2-1 3h-15v-1h14l-1-340 37-1 27-2 25-5 21-6 20-7 24-9 21-7 29-7 31-5 23-2z" fill="#D9B47D"/>
<path transform="translate(1440,31)" d="m0 0h9l25 3 21 5 17 7 19 10 12 9 11 9 25 25 11 14 10 13 11 16 21 31 9 12 7 7 13 6 16 4 26 4 248 1 12 3 11 7 8 8 7 14 2 15-2 13-7 14-9 9-14 7-4 1-13 1h-229l-31 4-21 5-10 4-13 13-13 18-16 24-11 15-9 12-9 11-10 11-7 8-15 13-15 11-16 9-15 7-20 6-21 4h-5l6-7 2-7-1-217-1-5v-89h-16l-27-1-1-8v-101l1-3h5l-3-2 4-2z" fill="#D9B47D"/>
<path transform="translate(573,36)" d="m0 0 2 1-3 1v387l1 45-4-2-1-2-5 1-21-8-17-10-17-13-14-12-13-13-9-11-12-15-14-20-13-19-8-12-10-13-4-5-10-6-13-4-20-4-12-2-260-1-14-2-13-7-8-8-6-11-4-13v-9l4-15 7-11 10-9 13-6 5-1 257-1 25-3 25-6 10-5 8-7 11-15 11-16 13-19 12-17 11-14 7-7 7-8 15-15 14-11 11-8 20-11 12-4 12-3z" fill="#D9B47D"/>
<path transform="translate(605,31)" d="m0 0h11l31 2 34 4 8 2 1 1 1 12v332l-1 81-8 3-19 3-44 4h-15l-23-3-8-2-1-1-1-44v-379l1-8 4-3 17-3z" fill="#FE1F0B"/>
<path transform="translate(689,39)" d="m0 0 19 4 24 7 30 11 35 12 14 3-4 1v353l-26 8-29 10-43 14-20 4 1-82v-332z" fill="#D8B47D"/>
<path transform="translate(807,77)" d="m0 0h10l18 3 12 1 1 1 27 2 51 1v325l-1 13-61 1-29 2-24 4h-4z" fill="#010101"/>
<path transform="translate(848,82)" d="m0 0h21l78 1h97v254l1 86h13v1h-16l-3-4-3 3h-111l1-338h-51l-27-2z" fill="#D8B37D"/>
<path transform="translate(90,207)" d="m0 0h255v4l-7 9v12l3 19 8 30 5 16v2h-258l-14-2-13-7-8-8-6-11-4-13v-9l4-15 7-11 10-9 13-6z" fill="#8C8D8B"/>
<path transform="translate(1769,207)" d="m0 0h182l12 3 11 7 8 8 7 14 2 15-2 13-7 14-9 9-14 7-4 1-13 1h-207l-27-1 1-7 2-9v-15l-3-25-5-21-5-13z" fill="#8C8D8B"/>
<path transform="translate(1420,247)" d="m0 0h41l1 9 1 50v152l-3 2h-37l-3-1-1-29v-143z" fill="#676037"/>
<path transform="translate(1424,148)" d="m0 0h22l16 1 1 89 1 5 1 217-3 8-4 5-5 2h-26l-9-3-2-10v-31l1-70v-88l1-29 1-95zm-4 99-1 40v148l1 24 3 1h37l3-2v-152l-1-50-1-9z" fill="#B19E65"/>
<path transform="translate(1462,35)" d="m0 0h2v32l-1 62-1 19h-43l-1-8v-101l1-3h42z" fill="#E3CC75"/>
<path transform="translate(1417,367)" d="m0 0h1l1 92 2 1h38l5-2v-19h1v21l-3 8-4 5-5 2h-26l-9-3-2-10v-31z" fill="#B6A163"/>
<path transform="translate(1422,244)" d="m0 0h31l7 1 1 2h-41v-2z" fill="#8C8D8C"/>
<path transform="translate(1422,33)" d="m0 0h35l4 2-1 1h-36l-3-2z" fill="#B5A062"/>
<path transform="translate(1545,67)" d="m0 0 8 6 26 26-1 2-24-24-8-7z" fill="#E4CE7C"/>
</svg>
