<?xml version="1.0" encoding="UTF-8"?>
<svg version="1.1" viewBox="0 0 2048 470" width="531" height="122" xmlns="http://www.w3.org/2000/svg">
<path transform="translate(647,25)" d="m0 0h14l30 2 32 4 26 6 19 6 28 10 22 8 19 5 32 5 14 1 40 1h263l34-1 23-3 24-6 44-15 13-5 16-5 27-6 15-3 15-2 26-2h24l21 3 19 5 17 7 19 11 22 18 15 15 18 22 13 19 10 14 14 21 9 11 8 7 13 5 25 5 7 1 234 1 11 2 13 7 9 10 6 13 1 5v13l-4 13-8 11-9 7-13 5-14 1h-216l-29 4-20 5-9 5-7 6-10 14-10 15-11 16-13 18-10 13-13 14-7 8-14 12-18 13-17 9-21 7-24 5-7 1h-27l-37-4-28-5-28-8-25-9-20-7-26-8-19-4-18-2-20-1h-299l-23 1-25 3-25 5-22 7-30 11-18 6-21 5-18 4-21 3-34 3h-16l-23-3-7-2-2-2-1-2v2l-6-1-16-6-15-8-17-12-12-11-21-21-11-14-14-19-8-12-15-22-10-13-8-7-13-5-17-4-19-3h-239l-15-2-12-6-9-9-8-16-1-5v-10l3-12 6-10 9-9 11-6 10-2 241-1 26-3 19-5 8-4 7-6 1-2h2l2-4 9-12 26-38 10-13 9-11 12-13 13-13 17-13 11-7 16-8 12-5 7 1 1-3 12-3z" fill="#FE140D"/>
<path transform="translate(1423,25)" d="m0 0h24l21 3 19 5 17 7 19 11 22 18 15 15 18 22 13 19 10 14 14 21 9 11 8 7 13 5 25 5 7 1 234 1 11 2 13 7 9 10 6 13 1 5v13l-4 13-8 11-9 7-13 5-14 1h-216l-29 4-20 5-9 5-7 6-10 14-10 15-11 16-13 18-10 13-13 14-7 8-14 12-18 13-17 9-21 7-24 5-7 1h-27l-37-4-28-5-28-8-25-9-20-7-26-8-19-4-18-2-47-2v-319l14-1 34-1 23-3 24-6 44-15 13-5 16-5 27-6 15-3 15-2z" fill="#D7B37B"/>
<path transform="translate(840,69)" d="m0 0 13 1 14 2 56 1h203l46 1v319l-38 1h-234l-23 1-25 3-13 1v-258z" fill="#D5B179"/>
<path transform="translate(1454,27)" d="m0 0h9l21 5 15 6 16 8 13 9 17 14 15 15 18 22 13 19 10 14 14 21 9 11 8 7 13 5 25 5 7 1 234 1 11 2 13 7 9 10 6 13 1 5v13l-4 13-8 11-9 7-13 5-14 1h-216l-29 4-20 5-9 5-7 6-10 14-10 15-11 16-13 18-10 13-13 14-7 8-14 12-18 13-17 9-21 7-24 5-3-1 4-2 1-10v-113l1-44 1-30v-26l-3-31-1-56 2-71v-27l-2-1z" fill="#D7B37B"/>
<path transform="translate(616,30)" d="m0 0 2 1-1 405-2-1-1-2v2l-6-1-16-6-15-8-17-12-12-11-21-21-11-14-14-19-8-12-15-22-10-13-8-7-13-5-17-4-19-3h-239l-15-2-12-6-9-9-8-16-1-5v-10l3-12 6-10 9-9 11-6 10-2 241-1 26-3 19-5 8-4 7-6 1-2h2l2-4 9-12 26-38 10-13 9-11 12-13 13-13 17-13 11-7 16-8 12-5 7 1z" fill="#D7B37B"/>
<path transform="translate(728,33)" d="m0 0 9 1 26 7 55 20 19 5 32 5 14 1v1h-16l-27-4v328l-1 2 2 1-21 5-24 8-26 10-24 7-17 3z" fill="#D7B37B"/>
<path transform="translate(1110,73)" d="m0 0h16l46 1v319l-38 1h-72l-1-3 1-317z" fill="#010101"/>
<path transform="translate(840,69)" d="m0 0 13 1 14 2 56 1 26 1v319l-49 1-23 1-25 3-13 1v-258z" fill="#010101"/>
<path transform="translate(167,190)" d="m0 0h239l-2 5-6 7v18l5 23 9 29v4l-15 1h-224l-15-2-12-6-9-9-8-16-1-5v-10l3-12 6-10 9-9 11-6z" fill="#8A8B8B"/>
<path transform="translate(1839,192)" d="m0 0h65l14 1 4 1 3 1 7 8 5 4v2h2l5 9 2 6 2 10v13l-5 9-4 2-2 4-3 4-5 3-3 4-9 3-14 1h-186l-33-1v-4l4-13v-14l-3-22-5-22v-7l2-1z" fill="#8A8B8B"/>
<path transform="translate(1421,226)" d="m0 0h28l4 2 1 2 1 95v101l-1 2h-38l-2-1-1-9 1-187 1-3z" fill="#685F34"/>
<path transform="translate(949,74)" d="m0 0h1l1 87h2l3 16 2 5 3 1 2-8h5l2 8 3-1 2-1 10-1v2h5v2h2l3 9 1 6 1 4v73l-2 9-2 4-1 5h-2l-1 5-1 3-5 2v2l-5-2v-3l-1-8-2 8-2-2-2-9v-18l-1 31-4 5-4 2-3-1-3 9h-2l-1 4-1 53-2 18h-1l-1-69v-165z" fill="#B59663"/>
<path transform="translate(1413,135)" d="m0 0h42l1 49 3 31v29l-1 27-1 44v119l-2 5-8 3h-27l-11-3-1-7 1-1 1-15v-117l-1-41v-36l1-3-1-7 2-5 1-71zm8 91-6 2-1 3-1 192 1 4 2 1h38l1-2v-101l-1-95-2-3-3-1z" fill="#BCA467"/>
<path transform="translate(1413,30)" d="m0 0h43l1 2v25l-2 75-1 3h-41l-1-5v-92z" fill="#D6CC67"/>
<path transform="translate(728,33)" d="m0 0h2l1 9 1 61 1 25 1 27 1 14v58l-1 55v25l-1 52-1 3-1 63-1 8h-1z" fill="#D09F6A"/>
<path transform="translate(981,191)" d="m0 0 7 3v3h2l2 5 1 14 1 4v31h-2l-1-32-1-4-1 9h-2l-3-8v50l4-2 3 5-2 13-2 6-3 3v-2l-3 1-3-2v-3-12h-2l-1 12-2-2-1-65 1-26h2v2h2l1-1z" fill="#A88059"/>
<path transform="translate(950,76)" d="m0 0h1l1 8 2 74 3 14 1 3 3-1 2-5 4-1 1 4 4 1h3 3l1-3 6 1 7 1v2h2l3 9 2 9 1 19 1 3v3 60l-2 11h-2l-1 13-3 5-1 4h-2l-2 4h-2l-2 4-4-1-2-1-1-7-2 6-2-2-1-11 3-5 1-5 2 1 1 6-1 2 2 1-1 2 4 2v-2l5-2 1-4 5-15 2-10v-73l-2-5-2-11h-2v-2h-5l-3-1-8 1-1 2-4-1-1-8h-5l-2 8-4-1-3-9-1-12h-2l-1-3z" fill="#BAA166"/>
<path transform="translate(1426,209)" d="m0 0 10 1 2 3-1 2 11 2 5 5 3 4 1 9v182l-1 10-1 2-16 1-12 2-11-1-4-3-1-195 2-9 3-5h2l1-3h2v-2l7-1v-2l-4 1zm-5 17-6 2-1 3-1 192 1 4 2 1h38l1-2v-101l-1-95-2-3-3-1z" fill="#B69764"/>
<path transform="translate(949,74)" d="m0 0h1l1 84 2 28 3 6 1 1 3 36-2 51-1 14-2 1-2-1-1 7-1 1-2 22h-1v-165z" fill="#685F34"/>
<path transform="translate(951,161)" d="m0 0h1l2 19 3 5 1 9 2-2 2-6 2-3h4l2 11v68l-2 21h-2l-1 9h-2l-2-10h-3v12h-1v-14l2-51-3-36-3-4-1-3-1-11z" fill="#AA815A"/>
<path transform="translate(1676,190)" d="m0 0h235l11 2 13 7 9 10 6 13 1 5v13l-4 13-8 11-9 7-4 1 5-6 3-1 6-9h3l2-6 2-3v-16l-2-7-6-15h-2v-2l-3-1v-2l-4-2v-2l-4-2-1-3h-11v-1l-10-1h-65l-159 1-1 4z" fill="#B4AB99"/>
<path transform="translate(167,190)" d="m0 0h239l-2 5-6 5 2-6-21-1h-212l-2 2-10 2-1 3-7 3-6 3-2-1 7-7 11-6z" fill="#ADA088"/>
<path transform="translate(1172,74)" d="m0 0 2 2 1 92v130l-1 90-1 5h-1z" fill="#937D4E"/>
<path transform="translate(616,30)" d="m0 0 2 1-1 405h-1l-2-168v-40l1-162z" fill="#D5A36C"/>
<path transform="translate(839,68)" d="m0 0h9l21 3 14 1v1h-16l-27-4v328l-2-1-1-100v-125l1-65z" fill="#6A6138"/>
<path transform="translate(838,68)" d="m0 0h1v38l-1 65v125l1 103 2 1h-4l-1-6-1-114v-128l1-64z" fill="#B39361"/>
<path transform="translate(1424,220)" d="m0 0h24l6 5 1 3v97h-1l-1-95-1-2-3-1h-28l-6 1-1 168h-1v-168l3-6z" fill="#AA815A"/>
<path transform="translate(983,214)" d="m0 0 2 2 2 5v3l1-3 1-7 2 1 1 4v45l-1 5-3-4-2 3-1-2-2 4z" fill="#8A8B8B"/>
<path transform="translate(1897,190)" d="m0 0h14l11 2 13 7 9 10 6 13 1 5v13l-4 13-8 11-9 7-4 1 5-6 3-1 6-9h3l2-6 2-3v-16l-2-7-6-15h-2v-2l-3-1v-2l-4-2v-2l-4-2-1-3h-11v-1l-10-1v-2h-7z" fill="#A6A193"/>
<path transform="translate(1412,233)" d="m0 0h1l1 194 40 1 1-2v3l-16 1-12 2-11-1-4-3-1-194z" fill="#B59563"/>
<path transform="translate(967,202)" d="m0 0h1v49l-2 1-1 6h-2l-1-6-1-26 2-18 3-1z" fill="#685F34"/>
<path transform="translate(953,294)" d="m0 0h4v16l-4 4-1 7-1 51-1 21h-1v-83l1-8z" fill="#967C4F"/>
<path transform="translate(969,284)" d="m0 0h1v19l-4 5-4 2-3-1-3 9h-2l-1 4-1 53-1 10h-1l1-67 2-5 3-3 1-11 1-2h4l3 3 1-6h2z" fill="#BEA468"/>
<path transform="translate(135,210)" d="m0 0 1 2-2 7-2 3v8l1 7-1 7 2 1 2 8 5 2 2 5v2l3 1 3 5 6 2 3 2 11 3v1h-7l-11-4-6-4-8-8-8-16-1-5v-10l3-12z" fill="#A59F90"/>
<path transform="translate(971,242)" d="m0 0h1v30h-1l-2 20-1 2h-2v6h-3l-1-3h-4l-1 2 1-17 3-1 2 5v6l3-9h2l1-21z" fill="#B79A64"/>
<path transform="translate(1427,26)" d="m0 0h17l10 1 2 2-2 1h-41v-3z" fill="#BCA467"/>
<path transform="translate(161,191)" d="m0 0h6l-2 4-10 2-1 3-7 3-6 3-2-1 7-7 11-6z" fill="#A29D91"/>
<path transform="translate(957,309)" d="m0 0 1 2-2 7h-2l-1 4-1 53-1 10h-1l1-67 2-5z" fill="#BBA266"/>
<path transform="translate(979,223)" d="m0 0 3 1v33l-3 1-1-26z" fill="#685F34"/>
<path transform="translate(1454,426)" d="m0 0 1 3-16 1-12 2-11-1-3-3h41z" fill="#B08D5F"/>
<path transform="translate(1946,250)" d="m0 0 1 3-8 11-9 7-4 1 5-6 3-1 6-9h3l2-5z" fill="#AAA79C"/>
<path transform="translate(953,294)" d="m0 0h4v9l-4 2-2 5h-1v-8z" fill="#AA815A"/>
<path transform="translate(1897,190)" d="m0 0h14l7 1-1 2h-13v-2h-7z" fill="#B6AA93"/>
<path transform="translate(135,210)" d="m0 0 1 2-2 7-2 3h-2l3-9z" fill="#B3AD9F"/>
<path transform="translate(972,275)" d="m0 0h1l1 8-1 13h-1l-1-6v-12z" fill="#BBA266"/>
</svg>
