<?xml version="1.0" encoding="UTF-8"?>
<svg version="1.1" viewBox="0 0 2048 551" width="483" height="130" xmlns="http://www.w3.org/2000/svg">
<path transform="translate(577,14)" d="m0 0h13l40 3 24 3 27 6 24 7 29 10 30 11 24 6 26 4 21 2 27 1 65 1h228l1 3 2 1v-4l37-1 28-3 25-5 23-7 25-9 18-7 29-9 27-6 27-4 29-3h29l24 4 19 5 16 6 18 10 14 10 11 9 16 15 13 14 13 17 14 19 26 39 8 10 8 9 10 5 21 5 24 4 258 1 11 3 8 4 10 8 6 9 5 12 1 5v14l-4 13-9 13-9 7-8 4-12 3-255 1-26 4-24 6-8 6-8 8-13 18-17 25-14 20-9 11-11 14-15 16-13 12-18 13-22 12-16 7-21 5-25 4h-21l-24-2-32-4-23-5-25-7-44-15-33-11-27-6-32-3-32-1-2-4-2 4-82 1-48-1-169 1-25 1-28 3-14 3-9 1-40 13-34 12-31 9-25 5-23 3-39 3h-11l-23-3-12-3-24-8-20-11-13-9-11-9-10-9-17-17-11-14-12-15-13-19-10-14-9-14-11-14-6-7-8-5-18-5-23-4-8-1-272-1-13-4-10-6-7-7-8-14-2-7-1-10 2-13 7-14 9-10 12-7 10-3 266-1 31-4 23-6 7-4 4-4h2l2-4 8-9 14-20 8-12 9-13 10-14 9-11 12-14 11-13 11-9 13-11 16-10 14-8 16-6 16-5zm449 397v5l2-3v-2z" fill="#FE8D00"/>
<path transform="translate(1426,14)" d="m0 0h29l24 4 19 5 16 6 18 10 14 10 11 9 16 15 13 14 13 17 14 19 26 39 8 10 8 9 10 5 21 5 24 4 258 1 11 3 8 4 10 8 6 9 5 12 1 5v14l-4 13-9 13-9 7-8 4-12 3-255 1-26 4-24 6-8 6-8 8-13 18-17 25-14 20-9 11-11 14-15 16-13 12-18 13-22 12-16 7-21 5-25 4h-21l-24-2-32-4-23-5-25-7-44-15-33-11-27-6-32-3-32-1-2-4-2 4h-1v-351l4 4v-4l37-1 28-3 25-5 23-7 25-9 18-7 29-9 27-6 27-4z" fill="#D8B47E"/>
<path transform="translate(1426,14)" d="m0 0h29l24 4 19 5 16 6 18 10 14 10 11 9 16 15 13 14 13 17 14 19 26 39 8 10 8 9 10 5 21 5 24 4 258 1 11 3 8 4 10 8 6 9 5 12 1 5v14l-4 13-9 13-9 7-8 4-12 3-255 1-26 4-24 6-8 6-8 8-13 18-17 25-14 20-9 11-11 14-15 16-13 12-18 13-22 12-16 7-21 5-15 2 1-2h2l-1-64v-169l-1-8v-92h-45l-1-11v-107l-3 2-20 3-29 6-13 4-25 7-14 5-27 11-14 5-24 6-27 4-17 1h-19l-13 1-13 4h-3l-1 4-1-13 4 4v-4l37-1 28-3 25-5 23-7 25-9 18-7 29-9 27-6 27-4z" fill="#D8B47E"/>
<path transform="translate(547,18)" d="m0 0 4 1-5 2-1 12-1 52v352l1 29 2 2-5-1-24-8-20-11-13-9-11-9-10-9-17-17-11-14-12-15-13-19-10-14-9-14-11-14-6-7-8-5-18-5-23-4-8-1-272-1-13-4-10-6-7-7-8-14-2-7-1-10 2-13 7-14 9-10 12-7 10-3 266-1 31-4 23-6 7-4 4-4h2l2-4 8-9 14-20 8-12 9-13 10-14 9-11 12-14 11-13 11-9 13-11 16-10 14-8 16-6z" fill="#D8B47E"/>
<path transform="translate(577,14)" d="m0 0h13l40 3 24 3 10 2 1 1v440l-3 2-25 4-33 3-16 1h-11l-23-3-7-2-3-2-1-29v-352l1-52 1-12 8-4z" fill="#884B16"/>
<path transform="translate(665,23)" d="m0 0 8 1 26 7 35 12 30 11 24 6-1 32v333l1 2-8 1-40 13-34 12-31 9-11 2v-246z" fill="#D7B47D"/>
<path transform="translate(787,61)" d="m0 0 12 1 36 4 69 2 5 1v349l-8 1-45 1-25 1-28 3-14 3-3-2v-333z" fill="#00740E"/>
<path transform="translate(904,68)" d="m0 0h128l-2 1 1 300 1 50h-131v-1h8l-1-36v-309l1-4h-5zm122 343v5l2-3v-2z" fill="#D7B37D"/>
<path transform="translate(45,196)" d="m0 0h266l-9 12-1 11 2 17 6 23 8 24 3 6v2h-274l-13-4-10-6-7-7-8-14-2-7-1-10 2-13 7-14 9-10 12-7z" fill="#8B8D8B"/>
<path transform="translate(1706,195)" d="m0 0 262 1 11 3 8 4 10 8 6 9 5 12 1 5v14l-4 13-9 13-9 7-8 4-12 3h-255l4-2 4-12v-24l-4-26-5-21z" fill="#8B8D8B"/>
<path transform="translate(1421,236)" d="m0 0h13l28 1 1 31 1 60v118l-1 12h-27l-17-1-1-2v-190l1-27z" fill="#6C5D33"/>
<path transform="translate(1426,14)" d="m0 0h29l24 4 19 5 16 6 18 10 14 10 11 9 16 15 13 14 13 17 14 19 26 39 8 10 8 9 10 5 21 5 20 4 1 4h-10l-22-3-15-5-11-8-9-10-4-8-7-7-3-6-6-8-4-6-8-13-7-7-7-11-4-4v-2h-2l-3-5v-2h-2l-9-11-15-15-11-9-5-4-9-6-14-8-8-5-15-6-16-6-3-2h-10l-1 1-3 94-1 19h-45l-1-11v-107l-3 2-20 3-29 6-13 4-25 7-14 5-27 11-14 5-24 6-27 4-17 1h-19l-13 1-13 4h-3l-1 4-1-13 4 4v-4l37-1 28-3 25-5 23-7 25-9 18-7 29-9 27-6 27-4z" fill="#D9BF77"/>
<path transform="translate(1418,136)" d="m0 0h45l1 92 1 10-1 90h-1l-1-60v-31h-41l-1 1-1 27v192h17l27 1 1-53h1v64l-6 3-7 1h-21l-16-3-2-3 2-39 1-33 1-166z" fill="#B7A266"/>
<path transform="translate(1467,16)" d="m0 0 16 3 15 4 16 6 18 10 14 10 11 9 16 15 13 14 13 17 14 19 26 39 8 10 8 9 10 5 21 5 20 4 1 4h-10l-22-3-15-5-11-8-9-10-4-8-7-7-3-6-6-8-4-6-8-13-7-7-7-11-4-4v-2h-2l-3-5v-2h-2l-9-11-15-15-11-9-5-4-9-6-14-8-8-5-15-6-16-6-3-2h-10l-1-5z" fill="#E7C48D"/>
<path transform="translate(1407,16)" d="m0 0h12l-5 4-20 3-29 6-13 4-25 7-14 5-27 11-14 5-24 6-27 4-17 1h-19l-13 1-13 4h-3l-1 4-1-13 4 4v-4l37-1 28-3 25-5 23-7 25-9 18-7 29-9 27-6 27-4z" fill="#E7C48D"/>
<path transform="translate(537,21)" d="m0 0 4 1-5 5-10 4-9 4-16 9-14 9-10 8-5 2v2h-2l-1 3-7 6-6 8-12 12-12 18-9 12-14 22-10 13-6 11-10 11-11 8-11 4-13 3h-13l-7 2h-10l-4-1v-2l33-5 21-6 8-7h2l2-4 8-9 14-20 8-12 9-13 10-14 9-11 12-14 11-13 11-9 13-11 16-10 14-8 16-6z" fill="#E7C48D"/>
<path transform="translate(666,23)" d="m0 0 11 2 25 7 32 11 30 11 24 6-2 1v13l-5-5-6-5-32-9-15-6-13-4-11-5-25-7-9-1-3-2z" fill="#E7C38C"/>
<path transform="translate(547,18)" d="m0 0 4 1-5 2-1 12-1 52-1 181h-1l-1-218 1-26 1-3z" fill="#BCA05F"/>
<path transform="translate(974,272)" d="m0 0 1 2h6l2 3v16l-3 6h-2l-2-4-3 3-2 3h-2l-1-5v-15l2-8z" fill="#B29C61"/>
<path transform="translate(1015,68)" d="m0 0h17l-2 1v2h-42l-19 1-5-1h-37l-13 2-4 2v-5l3-1z" fill="#EAC591"/>
<path transform="translate(970,176)" d="m0 0h2v2h2l1-2 2 3h4l1 2v9l-2 4-5-4-3 6h-3v-17z" fill="#B7A266"/>
<path transform="translate(542,377)" d="m0 0h1l1 60 1 29 2 2-5-1-1-4v-57z" fill="#BBA160"/>
<path transform="translate(1431,16)" d="m0 0h16l19 1-1 3h-44l-2-3z" fill="#B7A266"/>
<path transform="translate(577,14)" d="m0 0h13l40 3v1h-77v-1z" fill="#E8A240"/>
<path transform="translate(1426,14)" d="m0 0h29l8 1v2h-44l-1-2z" fill="#D8B57D"/>
<path transform="translate(913,69)" d="m0 0h51v1l-17 1h-20l-13 2-4 2v-5z" fill="#EAC591"/>
<path transform="translate(1553,56)" d="m0 0 4 2 16 15 13 14-1 2-32-32z" fill="#E0CA90"/>
<path transform="translate(473,427)" d="m0 0 4 2 9 8 10 7 16 9-3 1-19-11-16-13z" fill="#E4C388"/>
<path transform="translate(959,278)" d="m0 0h1v23l-2-2-1-3v-15z" fill="#B7A266"/>
<path transform="translate(1015,68)" d="m0 0h17l-2 1v2h-24v-2z" fill="#E5C389"/>
<path transform="translate(448,404)" d="m0 0 4 2 17 17 4 3v2l-4-2-21-21z" fill="#DBC17D"/>
<path transform="translate(1267,61)" d="m0 0h3v2l-15 4-9 1 2-2z" fill="#D9BF77"/>
<path transform="translate(1426,14)" d="m0 0h9l-4 1v2h-12l-1-2z" fill="#DBBD80"/>
<path transform="translate(431,382)" d="m0 0 12 12-2 2-10-12z" fill="#E6C38B"/>
</svg>
