<?xml version="1.0" encoding="UTF-8"?>
<svg version="1.1" viewBox="0 0 2048 535" width="516" height="135" xmlns="http://www.w3.org/2000/svg">
<path transform="translate(629,37)" d="m0 0h19l37 3 27 4 28 7 33 11 36 13 20 5 26 4 30 2 143 1h144l40-1 27-3 23-5 20-6 27-10 23-8 21-6 29-6 23-3 14-1 3-1h32l19 3 17 4 16 6 14 7 18 12 13 11 24 24 11 14 13 18 12 18 15 22 8 10 5 5v2l5 2 11 4 23 5 13 2 241 1 13 3 11 7 7 7 5 8 4 13v13l-4 13-7 10-9 8-8 4-12 3-239 1-30 5-15 4-8 5-7 7-13 18-10 15-14 20-9 12-13 16-9 10-6 7-8 7-13 11-14 9-19 10-16 6-23 5-13 2h-27l-39-4-26-5-19-5-36-12-41-14-25-6-30-3-36-1-9-1-94 1-195 1-31 3-26 5-37 12-28 10-31 9-25 5-26 3-24 2h-21l-25-4-28-10-23-13-16-13-12-11-13-13-22-28-10-14-21-31-11-14-8-7-10-4-16-4-20-3-256-1-12-3-9-5-9-8-7-12-3-11v-10l3-12 7-12 10-9 13-6 5-1 249-1 30-4 19-5 8-4 9-9 12-16 8-12 11-16 12-17 8-10 12-14 11-12 12-11 16-12 20-12 15-6 21-6z" fill="#D6B27A"/>
<path transform="translate(629,37)" d="m0 0h19l37 3 27 4 28 7 33 11 36 13 20 5 26 4 30 2 19 1 37 1v327l-42 1-37 2-23 3-20 4-37 12-28 10-31 9-25 5-26 3-24 2h-21l-25-4-28-10-23-13-16-13-12-11-13-13-22-28-10-14-21-31-11-14-8-7-10-4-16-4-20-3-256-1-12-3-9-5-9-8-7-12-3-11v-10l3-12 7-12 10-9 13-6 5-1 249-1 30-4 19-5 8-4 9-9 12-16 8-12 11-16 12-17 8-10 12-14 11-12 12-11 16-12 20-12 15-6 21-6z" fill="#D6B27A"/>
<path transform="translate(1422,37)" d="m0 0h32l19 3 17 4 16 6 14 7 18 12 13 11 24 24 11 14 13 18 12 18 15 22 8 10 5 5v2l5 2 11 4 23 5 13 2 241 1 13 3 11 7 7 7 5 8 4 13v13l-4 13-7 10-9 8-8 4-12 3-239 1-30 5-15 4-8 5-7 7-13 18-10 15-14 20-9 12-13 16-9 10-6 7-8 7-13 11-14 9-19 10-16 6-23 5-13 2h-27l-11-2-1-1v-6l1-4 1-68v-41l-1-86-1-13 2-5 1-13 1-78-1-27v-61l1-17 2-5z" fill="#D6B27A"/>
<path transform="translate(599,42)" d="m0 0 2 1-1 1v15l1 18v41l-1 3 1 54v17h-1v129l1 28v67l-1 19v24l-3 1-18-6-16-8-13-8-14-11-13-12-13-13-22-28-10-14-21-31-11-14-8-7-10-4-16-4-20-3-256-1-12-3-9-5-9-8-7-12-3-11v-10l3-12 7-12 10-9 13-6 5-1 249-1 30-4 19-5 8-4 9-9 12-16 8-12 11-16 12-17 8-10 12-14 11-12 12-11 16-12 20-12 15-6z" fill="#D5B27A"/>
<path transform="translate(629,37)" d="m0 0h19l37 3 27 4 2 2 1 157v56l-1 199-22 4-44 4h-21l-25-4-3-1v-26l1-19v-67l-1-28v-131h1l-1-69v-25h1v-19l-1-18v-15l3-3z" fill="#017C0C"/>
<path transform="translate(904,87)" d="m0 0h124l24 1 4 1 1 2v293l1 31-14 1h-145v-1h42l-1-63v-137l1-127h-37z" fill="#D5B27A"/>
<path transform="translate(1052,88)" d="m0 0h119l-1 9 1 43v138l1 132 3 3 19 2v1h-20l-9-1-94 1-13-1-1-1-1-30v-295z" fill="#BFBEBE"/>
<path transform="translate(828,82)" d="m0 0 16 2 60 3 37 1v327l-42 1-37 2-23 3-10 1-1-49z" fill="#010001"/>
<path transform="translate(134,207)" d="m0 0h40l205 1-1 5-4 7v19l5 23 7 21 5 11v2h-255l-12-3-9-5-9-8-7-12-3-11v-10l3-12 7-12 10-9 13-6z" fill="#8A8C8B"/>
<path transform="translate(1689,207)" d="m0 0h243l13 3 11 7 7 7 5 8 4 13v13l-4 13-7 10-9 8-8 4-12 3h-175l-60-1 3-10 2-9v-9l-2-18-5-25-5-15z" fill="#8A8C8B"/>
<path transform="translate(1439,243)" d="m0 0h12l8 2 1 1 1 50v156h-33l-9-1v-186l1-18 3-3z" fill="#6C6236"/>
<path transform="translate(1435,150)" d="m0 0 26 1 1 1v39l3 49 1 5-2 50v167l-4 3-7 1h-27l-11-2-1-1v-6l1-4 1-68v-41l-1-86-1-13 2-5 1-13 1-73 1-3zm4 93-16 1-3 3-1 18v186l9 1h33v-156l-1-50-3-2-8-1z" fill="#B19D5D"/>
<path transform="translate(1447,42)" d="m0 0h15l1 1v26l-2 82h-42l-1-2-1-27v-61l1-17 1-1z" fill="#DBCA5E"/>
<path transform="translate(1422,37)" d="m0 0h32l19 3 17 4 16 6 14 7 18 12 13 11 24 24 11 14 13 18 12 18 15 22 8 10 5 5v2l5 2 11 4 23 5 13 2-2 5-20-2-13-2-13-5-1-2-5-2-8-9-4-5-4-7-5-5-3-9-4-2-6-10-3-3-4-8-6-5-6-10-5-4-6-11-7-8-17-17v-2l-4-2-2-4-3-3h-6l-5-3-2-5 1-2-4 1-8-3-14-7-10-4-11-3-6-1-1-2-9-3v-2l-22-1-21-1z" fill="#E7C896"/>
<path transform="translate(827,81)" d="m0 0h8l20 3v1h-11l-16-3 1 291v49h-3l-1-3-1-123v-71l1-115 1-23z" fill="#94844F"/>
<path transform="translate(904,87)" d="m0 0h38l1 3 1 108v197l-1 17-2 3-1-63v-137l1-127h-37z" fill="#90804A"/>
<path transform="translate(1419,38)" d="m0 0 2 1-6 2-19 2-4 3-12 1-11 3-10 2-18 6-10 4-10 2-3-1v2l-6 2-10 3h-2l-2 3-5 1-2 2-16 5-15 3-5 2-9 2-7 2-11 1-22-1-2-1h-4v-2l33-3 25-5 24-7 27-10 23-8 21-6 29-6 23-3z" fill="#E7C896"/>
<path transform="translate(535,76)" d="m0 0 2 1-4 5-1 2h-2l-1 4-3 2-1 3h-2l-2 4-7 8h-2l-2 4-7 8h-2l-1 7-10 10-2 3h-2v4h-2l-6 12-8 7-1 3-3 2-1 7-4 7-5 5-7 8-10 8-9 4-16 3-8 2-15 1-2-2-6-1v-1l30-4 19-5 8-4 9-9 12-16 8-12 11-16 12-17 8-10 12-14 11-12z" fill="#E8C895"/>
<path transform="translate(714,45)" d="m0 0h1l1 90 2 79v71l-1 61-1 27-1 85h-1v-255l-1-157z" fill="#B19C5D"/>
<path transform="translate(599,59)" d="m0 0h1l1 18v41l-1 3 1 54v17h-1v129l1 28v67l-1 19v24h-2l-1-180v-52l1-151z" fill="#AE9A5B"/>
<path transform="translate(715,45)" d="m0 0 25 6 33 11 36 13 20 5-3 1-1 5h-4v-2l-25-5-2-2-10-4-9-3-6-3-5-1v-2l-8-1-5-2-7-2-6-3-5-1-6-4h-12z" fill="#E7C692"/>
<path transform="translate(1296,67)" d="m0 0 4 1-2 5-5 1-2 2-16 5-15 3-5 2-9 2-7 2-11 1-22-1-2-1h-4v-2l33-3 25-5 24-7z" fill="#E7C794"/>
<path transform="translate(464,166)" d="m0 0 2 1-3 9-4 6-8 7-5 6-7 5-9 4-16 3-8 2-15 1-2-2-6-1v-1l30-4 19-5 8-4 9-9 12-16z" fill="#E6C794"/>
<path transform="translate(1422,37)" d="m0 0h32l19 3 17 4 16 6 14 7 9 6-3 2-9-2-8-5-11-5-11-3-6-2-6-1-1-2-9-3v-2l-22-1-21-1z" fill="#E4C799"/>
<path transform="translate(598,321)" d="m0 0h2l1 28v67l-1 19v24h-2z" fill="#A39055"/>
<path transform="translate(595,43)" d="m0 0h3v8l-6-2-6 1-1 1-4 1-1 2h-3v2l-7 4-5 2-4 2v2l-5 1-3 2h-3l-1 3-4 3-5-2 5-5 19-12 16-8z" fill="#E7C794"/>
<path transform="translate(515,406)" d="m0 0 4 1 15 15h2v2l4 1v2l4 2 8 7 9 5 15 9 11 4 11 3 1 3-12-3-17-7-20-12-14-11-13-12-8-8z" fill="#E9CD9F"/>
<path transform="translate(1421,38)" d="m0 0h22l15 1 5 1v2l-2 1h-39l-3-1z" fill="#B69F60"/>
<path transform="translate(599,59)" d="m0 0h1l1 18v41l-3 3v-45z" fill="#9B8950"/>
<path transform="translate(1572,398)" d="m0 0 2 1-9 10-6 7-8 7-13 11-8 5 1-4 6-5 5-2 5-6 9-7 5-5z" fill="#E7C692"/>
<path transform="translate(1317,59)" d="m0 0 4 1-2 2-1 3-6 2-10 3-3-4z" fill="#E8CB9C"/>
<path transform="translate(1528,64)" d="m0 0 4 1 11 8 1 2-10-1-5-3-2-5z" fill="#E8CA99"/>
<path transform="translate(595,43)" d="m0 0h3v8l-6-2-6 1v-2l-3-1z" fill="#E7CA9C"/>
<path transform="translate(570,449)" d="m0 0 6 1 11 4 11 3 1 3-12-3-17-7z" fill="#E9D0A9"/>
<path transform="translate(1526,439)" d="m0 0 3 1-18 10-6 3-3-1 12-7z" fill="#E7C793"/>
<path transform="translate(1172,87)" d="m0 0h10v1l5 1v1l-11 1h-4l-1 9-2-4 1-7z" fill="#DDC195"/>
<path transform="translate(515,406)" d="m0 0 4 1 11 11 3 4-4-1-14-14z" fill="#E9CB9C"/>
<path transform="translate(715,451)" d="m0 0 9 1 3 3-8 2h-4z" fill="#E8C997"/>
<path transform="translate(1537,430)" d="m0 0 4 1-10 8-1-3z" fill="#E8C896"/>
<path transform="translate(444,312)" d="m0 0 4 1 5 7 3 2-2 3-9-11z" fill="#E9CFA5"/>
<path transform="translate(1526,439)" d="m0 0 3 1-12 7v-3z" fill="#E8C998"/>
</svg>
